<svg width="36" height="36" viewBox="0 0 36 36" fill="none" xmlns="http://www.w3.org/2000/svg">
<path d="M19.0723 9.41797C16.6156 9.41797 14.6241 11.4095 14.6241 13.8661C14.6241 16.3228 16.6156 18.3144 19.0723 18.3144C21.5289 18.3144 23.5204 16.3228 23.5204 13.8661C23.5204 11.4095 21.5289 9.41797 19.0723 9.41797ZM19.0723 15.705C18.0568 15.705 17.2335 14.8817 17.2335 13.8662C17.2335 12.8507 18.0568 12.0274 19.0723 12.0274C20.0878 12.0274 20.911 12.8507 20.911 13.8662C20.911 14.8817 20.0878 15.705 19.0723 15.705Z" fill="#788D98"/>
<path d="M20.6428 21.8538C22.4236 21.491 23.4907 20.6477 23.5471 20.6025C24.0682 20.1846 24.1519 19.4234 23.734 18.9022C23.3162 18.3811 22.5551 18.2974 22.0339 18.7153C22.0228 18.7242 20.8847 19.5973 19.012 19.5986C17.1394 19.5973 15.9772 18.7242 15.9661 18.7153C15.4449 18.2974 14.6838 18.3811 14.266 18.9022C13.8481 19.4234 13.9318 20.1846 14.4529 20.6025C14.5101 20.6484 15.6213 21.5136 17.4519 21.8679L14.9005 24.5343C14.4369 25.0151 14.4508 25.7808 14.9317 26.2445C15.1664 26.4708 15.4689 26.5832 15.7711 26.5832C16.088 26.5832 16.4045 26.4594 16.6418 26.2133L19.0121 23.6884L21.6217 26.2296C22.0945 26.7017 22.8602 26.7009 23.3321 26.2283C23.8041 25.7556 23.8035 24.9898 23.3308 24.5179L20.6428 21.8538Z" fill="#788D98"/>
</svg>
