<svg width="40" height="40" viewBox="0 0 40 40" fill="none" xmlns="http://www.w3.org/2000/svg">
<path d="M20.0886 12.2227C20.9042 12.2248 27.0644 12.2534 28.682 12.6872C29.6383 12.9418 30.3903 13.6948 30.6466 14.6505C31.1111 16.3847 31.1111 20.0004 31.1111 20.0004V20.011C31.1111 20.2327 31.0955 23.6724 30.6466 25.3504C30.3903 26.306 29.6383 27.058 28.682 27.3136C27.1029 27.7379 21.1948 27.775 20.1563 27.7782H19.8438C18.8063 27.775 12.8982 27.7368 11.319 27.3136C10.3628 27.0591 9.60973 26.306 9.35348 25.3504C8.93475 23.7838 8.89517 20.6835 8.88892 20.097V19.9039C8.89412 19.3184 8.93475 16.2171 9.35348 14.6505C9.60973 13.6948 10.3628 12.9428 11.318 12.6872C12.9367 12.2534 19.0969 12.2248 19.9115 12.2227H20.0886ZM17.7793 16.6668V23.3351L23.552 20.0004L17.7793 16.6668Z" fill="#788D98"/>
</svg>
