<svg width="36" height="36" viewBox="0 0 36 36" fill="none" xmlns="http://www.w3.org/2000/svg">
<path fill-rule="evenodd" clip-rule="evenodd" d="M9.16866 17.0269C13.7321 15.0512 16.775 13.7487 18.2976 13.1194C22.6448 11.3225 23.5481 11.0104 24.1369 11.0001C24.2664 10.9978 24.5559 11.0297 24.7435 11.181C24.9018 11.3087 24.9454 11.4812 24.9663 11.6022C24.9871 11.7233 25.0131 11.9991 24.9924 12.2146C24.7569 14.6743 23.7375 20.6433 23.2189 23.3983C22.9995 24.564 22.5674 24.9548 22.1492 24.9931C21.2401 25.0762 20.5498 24.3961 19.6694 23.8225C18.2916 22.9251 17.5133 22.3664 16.176 21.4907C14.6305 20.4786 15.6323 19.9223 16.5131 19.0132C16.7436 18.7753 20.7489 15.1551 20.8264 14.8267C20.8361 14.7856 20.8451 14.6325 20.7536 14.5517C20.6621 14.4708 20.527 14.4985 20.4295 14.5204C20.2913 14.5516 18.0904 15.9972 13.8266 18.8573C13.2019 19.2836 12.636 19.4913 12.129 19.4804C11.5701 19.4684 10.495 19.1664 9.69573 18.9082C8.71541 18.5915 7.93627 18.4241 8.00412 17.8863C8.03946 17.6062 8.42764 17.3197 9.16866 17.0269Z" fill="#788D98"/>
</svg>
