<svg width="36" height="36" viewBox="0 0 36 36" fill="none" xmlns="http://www.w3.org/2000/svg">
<path fill-rule="evenodd" clip-rule="evenodd" d="M27.5411 13.2448C27.6801 12.8155 27.5411 12.5 26.8794 12.5H24.6914C24.135 12.5 23.8786 12.7725 23.7395 13.0731C23.7395 13.0731 22.6268 15.5848 21.0505 17.2163C20.5406 17.6886 20.3087 17.8388 20.0306 17.8388C19.8915 17.8388 19.6902 17.6885 19.6902 17.2592V13.2448C19.6902 12.7296 19.5287 12.5 19.0651 12.5H15.6268C15.2791 12.5 15.07 12.7391 15.07 12.9658C15.07 13.4542 15.8581 13.5668 15.9393 14.9408V17.9247C15.9393 18.5789 15.8118 18.6976 15.5336 18.6976C14.7919 18.6976 12.9876 16.1746 11.9174 13.2878C11.7077 12.7267 11.4974 12.5 10.9382 12.5H8.75018C8.12504 12.5 8 12.7725 8 13.0731C8 13.6098 8.74178 16.2717 11.4539 19.7924C13.2619 22.1967 15.8093 23.5 18.1274 23.5C19.5182 23.5 19.6902 23.2105 19.6902 22.7119V20.8947C19.6902 20.3158 19.822 20.2002 20.2624 20.2002C20.5869 20.2002 21.1433 20.3505 22.4414 21.5098C23.9249 22.8837 24.1695 23.5 25.004 23.5H27.192C27.8171 23.5 28.1297 23.2105 27.9494 22.6393C27.752 22.0699 27.0437 21.2439 26.1039 20.2646C25.5939 19.7065 24.8289 19.1054 24.5971 18.8048C24.2726 18.4185 24.3653 18.2467 24.5971 17.9032C24.5971 17.9032 27.2629 14.4255 27.5411 13.2448Z" fill="#788D98"/>
</svg>
