<svg width="87" height="36" viewBox="0 0 87 36" fill="none" xmlns="http://www.w3.org/2000/svg">
<path d="M29.8668 15.6144L29.0994 15.2048L33.2482 8.33734C35.4545 4.67469 32.8405 0 28.5718 0H10.5139C-0.397655 0 -4.04282 14.6024 5.50176 19.8072L0.92132 27.4217C-1.33293 31.1807 1.35299 35.9759 5.71759 35.9759H24.8547C36.054 35.9759 39.7951 20.8915 29.8668 15.6144Z" fill="url(#paint0_linear_145_1280)"/>
<path d="M11.4492 7.54215L29.1234 15.2048L33.2722 8.33734C35.4785 4.67469 32.8645 0 28.5958 0H13.3437C9.17092 0 7.78 5.59034 11.4492 7.54215Z" fill="url(#paint1_linear_145_1280)"/>
<path d="M21.6652 26.699L5.50176 19.8315L0.921319 27.446C-1.33293 31.2051 1.35298 36.0002 5.71759 36.0002H19.387C24.471 35.9761 26.1977 29.1086 21.6652 26.699Z" fill="url(#paint2_linear_145_1280)"/>
<path d="M49.891 21.5901H45.8382C44.711 21.5901 43.6558 20.9877 43.1043 19.9998C42.8405 19.5419 42.9844 18.9395 43.464 18.6745C43.9196 18.4094 44.5192 18.554 44.783 19.0359C44.9988 19.4214 45.4305 19.6624 45.8621 19.6624H49.915C50.6105 19.6624 51.162 19.1082 51.162 18.4094C51.162 17.7106 50.6105 17.1564 49.915 17.1564H46.006C44.2554 17.1564 42.8405 15.7347 42.8405 13.9757C42.8405 12.2166 44.2554 10.7949 46.006 10.7949H49.915C51.0421 10.7949 52.0973 11.3974 52.6489 12.3853C52.9127 12.8431 52.7688 13.4455 52.2891 13.7106C51.8335 13.9757 51.234 13.8311 50.9702 13.3492C50.7543 12.9636 50.3227 12.7226 49.891 12.7226H45.982C45.2866 12.7226 44.735 13.2769 44.735 13.9757C44.735 14.6745 45.2866 15.2287 45.982 15.2287H49.891C51.6416 15.2287 53.0565 16.6504 53.0565 18.4094C53.0565 20.1684 51.6416 21.5901 49.891 21.5901Z" fill="#1A1A1A"/>
<path d="M69.5078 21.5901C68.9802 21.5901 68.5485 21.1564 68.5485 20.6263V11.7588C68.5485 11.2287 68.9802 10.7949 69.5078 10.7949C70.0354 10.7949 70.467 11.2287 70.467 11.7588V20.6263C70.467 21.1564 70.0354 21.5901 69.5078 21.5901Z" fill="#1A1A1A"/>
<path d="M73.9204 12.7466H65.0952C64.5676 12.7466 64.136 12.3128 64.136 11.7827C64.136 11.2526 64.5676 10.8188 65.0952 10.8188H73.9204C74.4479 10.8188 74.8796 11.2526 74.8796 11.7827C74.8796 12.3128 74.4479 12.7466 73.9204 12.7466Z" fill="#1A1A1A"/>
<path d="M59.1718 21.5901C58.6442 21.5901 58.2125 21.1564 58.2125 20.6263V11.7588C58.2125 11.2287 58.6442 10.7949 59.1718 10.7949C59.6994 10.7949 60.131 11.2287 60.131 11.7588V20.6263C60.131 21.1564 59.7233 21.5901 59.1718 21.5901Z" fill="#1A1A1A"/>
<path d="M85.983 21.5901H79.7238C79.1963 21.5901 78.7646 21.1564 78.7646 20.6263V11.7588C78.7646 11.2287 79.1963 10.7949 79.7238 10.7949H85.983C86.5106 10.7949 86.9422 11.2287 86.9422 11.7588C86.9422 12.2889 86.5106 12.7226 85.983 12.7226H80.6831V19.6624H85.983C86.5106 19.6624 86.9422 20.0961 86.9422 20.6263C86.9422 21.1564 86.5106 21.5901 85.983 21.5901Z" fill="#1A1A1A"/>
<path d="M85.7192 17.1562H80.0116C79.484 17.1562 79.0524 16.7225 79.0524 16.1924C79.0524 15.6623 79.484 15.2285 80.0116 15.2285H85.7192C86.2468 15.2285 86.6784 15.6623 86.6784 16.1924C86.6784 16.7466 86.2468 17.1562 85.7192 17.1562Z" fill="#1A1A1A"/>
<defs>
<linearGradient id="paint0_linear_145_1280" x1="8.91362" y1="37.9665" x2="26.5339" y2="-1.43506" gradientUnits="userSpaceOnUse">
<stop stop-color="#2AF399"/>
<stop offset="1" stop-color="#0D98FC"/>
</linearGradient>
<linearGradient id="paint1_linear_145_1280" x1="21.6921" y1="15.2161" x2="21.6921" y2="0.0072286" gradientUnits="userSpaceOnUse">
<stop stop-color="#A32EF0"/>
<stop offset="1" stop-color="#A32EF0" stop-opacity="0"/>
</linearGradient>
<linearGradient id="paint2_linear_145_1280" x1="12.1836" y1="35.987" x2="12.1836" y2="19.8219" gradientUnits="userSpaceOnUse">
<stop stop-color="#0D98FC" stop-opacity="0"/>
<stop offset="0.9985" stop-color="#0D98FC"/>
</linearGradient>
</defs>
</svg>
