<svg width="70" height="40" viewBox="0 0 70 40" fill="none" xmlns="http://www.w3.org/2000/svg">
<rect width="70" height="40" rx="6" fill="white"/>
<g clip-path="url(#clip0_133_1570)">
<path d="M30.556 12.1094H39.1214V27.6096H30.556V12.1094Z" fill="#FF5F00"/>
<path d="M31.0988 19.8613C31.0972 18.3682 31.433 16.8943 32.0809 15.5513C32.7288 14.2082 33.6717 13.0312 34.8381 12.1094C30.8241 8.93347 25.0606 9.396 21.5974 13.1723C18.1342 16.9486 18.1342 22.7707 21.5974 26.547C25.0606 30.3233 30.8241 30.7858 34.8378 27.6099C33.6718 26.6884 32.7292 25.5119 32.0814 24.1694C31.4337 22.8269 31.0975 21.3539 31.0988 19.8613Z" fill="#EB001B"/>
<path d="M50.6793 19.8599C50.6791 21.7093 50.1622 23.5214 49.1875 25.0891C48.2129 26.6568 46.8199 27.9167 45.1679 28.7249C43.5158 29.5331 41.6713 29.857 39.845 29.6594C38.0187 29.462 36.2845 28.7511 34.8406 27.6081C36.006 26.6858 36.9484 25.509 37.5962 24.1664C38.2442 22.8239 38.5808 21.3507 38.5808 19.858C38.5808 18.3654 38.2442 16.8922 37.5962 15.5496C36.9484 14.2071 36.006 13.0303 34.8406 12.1079C36.2845 10.9648 38.0188 10.2539 39.8452 10.0564C41.6715 9.85886 43.5161 10.1827 45.1683 10.991C46.8204 11.7992 48.2134 13.0592 49.1881 14.627C50.1626 16.1947 50.6795 18.0069 50.6796 19.8565L50.6793 19.8599ZM49.744 25.9656V25.6476H49.8719V25.5819H49.5484V25.6476H49.6869V25.9652L49.744 25.9656ZM50.3723 25.9656V25.5821H50.2744L50.1601 25.856L50.0459 25.5821H49.9588V25.9656H50.0295V25.678L50.1354 25.9272H50.2091L50.3149 25.678V25.9683L50.3723 25.9656Z" fill="#F79E1B"/>
</g>
<defs>
<clipPath id="clip0_133_1570">
<rect width="32" height="20" fill="white" transform="translate(19 10)"/>
</clipPath>
</defs>
</svg>
