<svg width="70" height="40" viewBox="0 0 70 40" fill="none" xmlns="http://www.w3.org/2000/svg">
<rect width="70" height="40" rx="6" fill="white"/>
<g clip-path="url(#clip0_133_1562)">
<path d="M13 14H17.125C17.5 14 18.625 13.875 19.125 15.625C19.5 16.75 20 18.5 20.75 21.125H21C21.75 18.375 22.375 16.5 22.625 15.625C23.125 13.875 24.375 14 24.875 14H28.75V26H24.75V18.875H24.5L22.375 26H19.375L17.25 18.875H16.875V26H13M30.375 14H34.375V21.125H34.75L37.375 15.25C37.875 14.125 39 14 39 14H42.75V26H38.75V18.875H38.5L35.875 24.75C35.375 25.875 34.125 26 34.125 26H30.375M48.125 22.375V26H44.375V19.75H56.625C56.125 21.25 54.375 22.375 52.375 22.375" fill="#0F754E"/>
<path d="M56.875 19C57.375 16.75 55.875 14 52.625 14H44.125C44.375 16.625 46.625 19 49 19" fill="url(#paint0_linear_133_1562)"/>
</g>
<defs>
<linearGradient id="paint0_linear_133_1562" x1="55.375" y1="12.375" x2="45.375" y2="12.375" gradientUnits="userSpaceOnUse">
<stop stop-color="#1F5CD7"/>
<stop offset="1" stop-color="#02AEFF"/>
</linearGradient>
<clipPath id="clip0_133_1562">
<rect width="44" height="12" fill="white" transform="translate(13 14)"/>
</clipPath>
</defs>
</svg>
