<svg width="140" height="44" viewBox="0 0 140 44" fill="none" xmlns="http://www.w3.org/2000/svg">
<path d="M1 8C1 3.85786 4.35786 0.5 8.5 0.5H131.5C135.642 0.5 139 3.85786 139 8V36C139 40.1421 135.642 43.5 131.5 43.5H8.5C4.35786 43.5 1 40.1421 1 36V8Z" stroke="#788D98" stroke-opacity="0.5"/>
<path fill-rule="evenodd" clip-rule="evenodd" d="M16.6478 10.8117C16.5524 11.0535 16.5 11.3452 16.5 11.6815V32.3179C16.5 32.6544 16.5523 32.9458 16.6475 33.1872L27.4203 21.9985L16.6478 10.8117ZM17.3315 33.9186C17.7265 34.0748 18.2328 34.0109 18.7832 33.6868L31.4677 26.2016L28.1144 22.7193L17.3315 33.9186ZM32.3535 25.6798L36.3056 23.348C37.5609 22.6062 37.5609 21.3941 36.3056 20.6533L32.3507 18.3195L28.8085 21.9985L32.3535 25.6798ZM31.4654 17.7972L18.7832 10.3136C18.2333 9.98911 17.7275 9.92535 17.3326 10.0812L28.1144 21.2776L31.4654 17.7972Z" fill="#788D98" fill-opacity="0.5"/>
<path d="M44.8751 19.5625V17.2188H45.3296C45.4409 17.1027 45.5368 16.9773 45.6173 16.8423C45.6978 16.7074 45.7676 16.5476 45.8268 16.3629C45.8883 16.1759 45.9404 15.9486 45.983 15.6811C46.0257 15.4112 46.0635 15.0857 46.0967 14.7045L46.2813 12.5455H49.7472V17.2188H50.5853V19.5625H49.7472V18H45.7132V19.5625H44.8751ZM46.2813 17.2188H48.9092V13.3267H47.0626L46.9205 14.7045C46.8614 15.2751 46.788 15.7734 46.7004 16.1996C46.6128 16.6257 46.4731 16.9654 46.2813 17.2188ZM53.9136 18.1136C53.4212 18.1136 52.9891 17.9964 52.6175 17.7621C52.2481 17.5277 51.9593 17.1998 51.751 16.7784C51.545 16.357 51.442 15.8646 51.442 15.3011C51.442 14.733 51.545 14.237 51.751 13.8132C51.9593 13.3894 52.2481 13.0604 52.6175 12.826C52.9891 12.5916 53.4212 12.4744 53.9136 12.4744C54.406 12.4744 54.8369 12.5916 55.2062 12.826C55.5779 13.0604 55.8667 13.3894 56.0727 13.8132C56.281 14.237 56.3852 14.733 56.3852 15.3011C56.3852 15.8646 56.281 16.357 56.0727 16.7784C55.8667 17.1998 55.5779 17.5277 55.2062 17.7621C54.8369 17.9964 54.406 18.1136 53.9136 18.1136ZM53.9136 17.3608C54.2877 17.3608 54.5954 17.2649 54.8369 17.0732C55.0784 16.8814 55.2571 16.6293 55.3731 16.3168C55.4891 16.0043 55.5471 15.6657 55.5471 15.3011C55.5471 14.9366 55.4891 14.5968 55.3731 14.282C55.2571 13.9671 55.0784 13.7126 54.8369 13.5185C54.5954 13.3243 54.2877 13.2273 53.9136 13.2273C53.5396 13.2273 53.2318 13.3243 52.9903 13.5185C52.7488 13.7126 52.5701 13.9671 52.4541 14.282C52.3381 14.5968 52.2801 14.9366 52.2801 15.3011C52.2801 15.6657 52.3381 16.0043 52.4541 16.3168C52.5701 16.6293 52.7488 16.8814 52.9903 17.0732C53.2318 17.2649 53.5396 17.3608 53.9136 17.3608ZM59.8804 18.1136C59.3691 18.1136 58.9287 17.9929 58.5594 17.7514C58.1901 17.5099 57.906 17.1773 57.7071 16.7536C57.5083 16.3298 57.4088 15.8456 57.4088 15.3011C57.4088 14.7472 57.5106 14.2583 57.7142 13.8345C57.9202 13.4084 58.2066 13.0758 58.5736 12.8366C58.9429 12.5952 59.3738 12.4744 59.8662 12.4744C60.2497 12.4744 60.5954 12.5455 60.9031 12.6875C61.2109 12.8295 61.463 13.0284 61.6595 13.2841C61.856 13.5398 61.978 13.8381 62.0253 14.179H61.1872C61.1233 13.9304 60.9813 13.7102 60.7611 13.5185C60.5433 13.3243 60.2497 13.2273 59.8804 13.2273C59.5537 13.2273 59.2673 13.3125 59.021 13.483C58.7772 13.651 58.5866 13.889 58.4493 14.1967C58.3144 14.5021 58.2469 14.8608 58.2469 15.2727C58.2469 15.6941 58.3132 16.0611 58.4458 16.3736C58.5807 16.6861 58.7701 16.9287 59.0139 17.1016C59.2602 17.2744 59.549 17.3608 59.8804 17.3608C60.0982 17.3608 60.2959 17.3229 60.4735 17.2472C60.651 17.1714 60.8013 17.0625 60.9244 16.9205C61.0476 16.7784 61.1352 16.608 61.1872 16.4091H62.0253C61.978 16.7311 61.8608 17.0211 61.6737 17.2791C61.4891 17.5348 61.2441 17.7384 60.9387 17.8899C60.6356 18.0391 60.2829 18.1136 59.8804 18.1136ZM62.8208 13.3267V12.5455H67.2526V13.3267H65.4628V18H64.6247V13.3267H62.8208ZM69.0148 20.0455C68.8728 20.0455 68.7461 20.0336 68.6349 20.0099C68.5236 19.9886 68.4466 19.9673 68.404 19.946L68.6171 19.2074C68.8207 19.2595 69.0006 19.2784 69.1569 19.2642C69.3131 19.25 69.4516 19.1802 69.5724 19.0547C69.6955 18.9316 69.8079 18.7315 69.9097 18.4545L70.066 18.0284L68.0489 12.5455H68.958L70.4637 16.892H70.5205L72.0262 12.5455H72.9353L70.6199 18.7955C70.5158 19.0772 70.3867 19.3104 70.2329 19.495C70.079 19.6821 69.9002 19.8205 69.6966 19.9105C69.4954 20.0005 69.2681 20.0455 69.0148 20.0455ZM74.0415 18V12.5455H78.3312V18H77.4932V13.3267H74.8795V18H74.0415ZM83.5123 14.8892V15.6705H80.501V14.8892H83.5123ZM80.6998 12.5455V18H79.8618V12.5455H80.6998ZM84.1515 12.5455V18H83.3135V12.5455H84.1515ZM87.898 18.1136C87.4056 18.1136 86.9735 17.9964 86.6018 17.7621C86.2325 17.5277 85.9437 17.1998 85.7354 16.7784C85.5294 16.357 85.4264 15.8646 85.4264 15.3011C85.4264 14.733 85.5294 14.237 85.7354 13.8132C85.9437 13.3894 86.2325 13.0604 86.6018 12.826C86.9735 12.5916 87.4056 12.4744 87.898 12.4744C88.3904 12.4744 88.8213 12.5916 89.1906 12.826C89.5623 13.0604 89.8511 13.3894 90.0571 13.8132C90.2654 14.237 90.3696 14.733 90.3696 15.3011C90.3696 15.8646 90.2654 16.357 90.0571 16.7784C89.8511 17.1998 89.5623 17.5277 89.1906 17.7621C88.8213 17.9964 88.3904 18.1136 87.898 18.1136ZM87.898 17.3608C88.272 17.3608 88.5798 17.2649 88.8213 17.0732C89.0628 16.8814 89.2415 16.6293 89.3575 16.3168C89.4735 16.0043 89.5315 15.6657 89.5315 15.3011C89.5315 14.9366 89.4735 14.5968 89.3575 14.282C89.2415 13.9671 89.0628 13.7126 88.8213 13.5185C88.5798 13.3243 88.272 13.2273 87.898 13.2273C87.5239 13.2273 87.2162 13.3243 86.9747 13.5185C86.7332 13.7126 86.5545 13.9671 86.4385 14.282C86.3225 14.5968 86.2645 14.9366 86.2645 15.3011C86.2645 15.6657 86.3225 16.0043 86.4385 16.3168C86.5545 16.6293 86.7332 16.8814 86.9747 17.0732C87.2162 17.2649 87.5239 17.3608 87.898 17.3608ZM94.4614 18V12.5455H96.6915C97.2786 12.5455 97.745 12.678 98.0906 12.9432C98.4363 13.2083 98.6091 13.5587 98.6091 13.9943C98.6091 14.3258 98.5109 14.5826 98.3144 14.7649C98.1179 14.9448 97.8657 15.0668 97.558 15.1307C97.7592 15.1591 97.9545 15.2301 98.1439 15.3438C98.3357 15.4574 98.4943 15.6136 98.6198 15.8125C98.7452 16.009 98.808 16.2505 98.808 16.5369C98.808 16.8163 98.7369 17.0661 98.5949 17.2862C98.4529 17.5064 98.2493 17.6804 97.9841 17.8082C97.719 17.9361 97.4017 18 97.0324 18H94.4614ZM95.2568 17.233H97.0324C97.3212 17.233 97.5473 17.1643 97.7107 17.027C97.874 16.8897 97.9557 16.7027 97.9557 16.4659C97.9557 16.1842 97.874 15.9628 97.7107 15.8018C97.5473 15.6385 97.3212 15.5568 97.0324 15.5568H95.2568V17.233ZM95.2568 14.8324H96.6915C96.9164 14.8324 97.1093 14.8016 97.2703 14.7401C97.4313 14.6761 97.5544 14.5862 97.6396 14.4702C97.7272 14.3518 97.771 14.2121 97.771 14.0511C97.771 13.8215 97.6752 13.6416 97.4834 13.5114C97.2916 13.3788 97.0277 13.3125 96.6915 13.3125H95.2568V14.8324Z" fill="#788D98" fill-opacity="0.5"/>
<path d="M52.6915 27.0696C52.6086 26.8011 52.4943 26.5608 52.3485 26.3487C52.2059 26.1333 52.0336 25.9493 51.8314 25.7969C51.6325 25.6444 51.4039 25.5301 51.1453 25.4538C50.8868 25.3743 50.6051 25.3345 50.3002 25.3345C49.7533 25.3345 49.2661 25.4721 48.8385 25.7472C48.411 26.0223 48.0745 26.4266 47.8293 26.9602C47.5873 27.4905 47.4664 28.1368 47.4664 28.8991C47.4664 29.6681 47.5873 30.3194 47.8293 30.853C48.0712 31.3866 48.4076 31.7926 48.8385 32.071C49.2694 32.3461 49.7699 32.4837 50.3399 32.4837C50.857 32.4837 51.3044 32.3842 51.6823 32.1854C52.0634 31.9865 52.3567 31.7048 52.5622 31.3402C52.7677 30.9723 52.8705 30.5414 52.8705 30.0476L53.2881 30.1122H50.5239V28.6705H54.6553V29.8935C54.6553 30.7652 54.4697 31.5192 54.0985 32.1555C53.7272 32.7919 53.2168 33.2824 52.5672 33.6271C51.9176 33.9685 51.1718 34.1392 50.33 34.1392C49.392 34.1392 48.5684 33.9287 47.8591 33.5078C47.1531 33.0836 46.6013 32.482 46.2036 31.7031C45.8092 30.9209 45.6119 29.9929 45.6119 28.919C45.6119 28.0971 45.728 27.3629 45.96 26.7166C46.1953 26.0703 46.5234 25.5218 46.9443 25.071C47.3653 24.617 47.8591 24.2723 48.4259 24.0369C48.9926 23.7983 49.6091 23.679 50.2753 23.679C50.8387 23.679 51.3641 23.7618 51.8513 23.9276C52.3385 24.09 52.771 24.322 53.1489 24.6236C53.53 24.9252 53.8432 25.2831 54.0885 25.6974C54.3338 26.1117 54.4945 26.5691 54.5708 27.0696H52.6915ZM59.6903 34.1491C58.9445 34.1491 58.2982 33.9851 57.7513 33.657C57.2045 33.3288 56.7802 32.8698 56.4786 32.2798C56.1803 31.6899 56.0312 31.0005 56.0312 30.2116C56.0312 29.4228 56.1803 28.7318 56.4786 28.1385C56.7802 27.5452 57.2045 27.0845 57.7513 26.7564C58.2982 26.4283 58.9445 26.2642 59.6903 26.2642C60.436 26.2642 61.0823 26.4283 61.6292 26.7564C62.176 27.0845 62.5986 27.5452 62.8969 28.1385C63.1985 28.7318 63.3493 29.4228 63.3493 30.2116C63.3493 31.0005 63.1985 31.6899 62.8969 32.2798C62.5986 32.8698 62.176 33.3288 61.6292 33.657C61.0823 33.9851 60.436 34.1491 59.6903 34.1491ZM59.7002 32.7074C60.1046 32.7074 60.4426 32.5964 60.7144 32.3743C60.9862 32.1489 61.1884 31.8473 61.3209 31.4695C61.4568 31.0916 61.5248 30.6707 61.5248 30.2067C61.5248 29.7393 61.4568 29.3168 61.3209 28.9389C61.1884 28.5578 60.9862 28.2545 60.7144 28.0291C60.4426 27.8037 60.1046 27.6911 59.7002 27.6911C59.2859 27.6911 58.9412 27.8037 58.6661 28.0291C58.3943 28.2545 58.1905 28.5578 58.0546 28.9389C57.922 29.3168 57.8557 29.7393 57.8557 30.2067C57.8557 30.6707 57.922 31.0916 58.0546 31.4695C58.1905 31.8473 58.3943 32.1489 58.6661 32.3743C58.9412 32.5964 59.2859 32.7074 59.7002 32.7074ZM68.2078 34.1491C67.4621 34.1491 66.8158 33.9851 66.2689 33.657C65.722 33.3288 65.2978 32.8698 64.9962 32.2798C64.6979 31.6899 64.5487 31.0005 64.5487 30.2116C64.5487 29.4228 64.6979 28.7318 64.9962 28.1385C65.2978 27.5452 65.722 27.0845 66.2689 26.7564C66.8158 26.4283 67.4621 26.2642 68.2078 26.2642C68.9536 26.2642 69.5999 26.4283 70.1468 26.7564C70.6936 27.0845 71.1162 27.5452 71.4145 28.1385C71.7161 28.7318 71.8669 29.4228 71.8669 30.2116C71.8669 31.0005 71.7161 31.6899 71.4145 32.2798C71.1162 32.8698 70.6936 33.3288 70.1468 33.657C69.5999 33.9851 68.9536 34.1491 68.2078 34.1491ZM68.2178 32.7074C68.6221 32.7074 68.9602 32.5964 69.232 32.3743C69.5038 32.1489 69.7059 31.8473 69.8385 31.4695C69.9744 31.0916 70.0423 30.6707 70.0423 30.2067C70.0423 29.7393 69.9744 29.3168 69.8385 28.9389C69.7059 28.5578 69.5038 28.2545 69.232 28.0291C68.9602 27.8037 68.6221 27.6911 68.2178 27.6911C67.8035 27.6911 67.4588 27.8037 67.1837 28.0291C66.9119 28.2545 66.7081 28.5578 66.5722 28.9389C66.4396 29.3168 66.3733 29.7393 66.3733 30.2067C66.3733 30.6707 66.4396 31.0916 66.5722 31.4695C66.7081 31.8473 66.9119 32.1489 67.1837 32.3743C67.4588 32.5964 67.8035 32.7074 68.2178 32.7074ZM76.7155 37.0227C76.0692 37.0227 75.514 36.9349 75.05 36.7592C74.586 36.5869 74.2131 36.3549 73.9314 36.0632C73.6497 35.7715 73.4541 35.4484 73.3447 35.0938L74.9655 34.701C75.0384 34.8501 75.1444 34.9976 75.2836 35.1435C75.4229 35.2926 75.6101 35.4152 75.8454 35.5114C76.0841 35.6108 76.384 35.6605 76.7453 35.6605C77.2557 35.6605 77.6783 35.5362 78.0131 35.2876C78.3478 35.0424 78.5152 34.638 78.5152 34.0746V32.6278H78.4257C78.3329 32.8134 78.197 33.004 78.018 33.1996C77.8424 33.3951 77.6087 33.5592 77.317 33.6918C77.0287 33.8243 76.6657 33.8906 76.2282 33.8906C75.6416 33.8906 75.1096 33.7531 74.6324 33.478C74.1584 33.1996 73.7806 32.7853 73.4988 32.2351C73.2204 31.6816 73.0812 30.9889 73.0812 30.157C73.0812 29.3184 73.2204 28.6108 73.4988 28.0341C73.7806 27.4541 74.1601 27.0149 74.6373 26.7166C75.1146 26.415 75.6466 26.2642 76.2332 26.2642C76.6807 26.2642 77.0486 26.3404 77.3369 26.4929C77.6286 26.642 77.8606 26.8227 78.0329 27.0348C78.2053 27.2436 78.3362 27.4408 78.4257 27.6264H78.5251V26.3636H80.3V34.1243C80.3 34.7772 80.1442 35.3175 79.8327 35.745C79.5211 36.1726 79.0952 36.4924 78.555 36.7045C78.0147 36.9167 77.4015 37.0227 76.7155 37.0227ZM76.7304 32.4787C77.1115 32.4787 77.4363 32.3859 77.7048 32.2003C77.9733 32.0147 78.1771 31.7479 78.3163 31.3999C78.4555 31.0518 78.5251 30.6342 78.5251 30.147C78.5251 29.6664 78.4555 29.2455 78.3163 28.8842C78.1804 28.523 77.9782 28.2429 77.7098 28.044C77.4446 27.8419 77.1182 27.7408 76.7304 27.7408C76.3293 27.7408 75.9946 27.8452 75.7261 28.054C75.4577 28.2628 75.2555 28.5495 75.1196 28.9141C74.9837 29.2753 74.9157 29.6863 74.9157 30.147C74.9157 30.6143 74.9837 31.0237 75.1196 31.375C75.2588 31.723 75.4626 31.9948 75.7311 32.1903C76.0029 32.3826 76.336 32.4787 76.7304 32.4787ZM83.9442 23.8182V34H82.1444V23.8182H83.9442ZM89.1755 34.1491C88.4099 34.1491 87.7487 33.9901 87.1919 33.6719C86.6383 33.3504 86.2124 32.8963 85.9142 32.3097C85.6159 31.7197 85.4667 31.0253 85.4667 30.2266C85.4667 29.4411 85.6159 28.7517 85.9142 28.1584C86.2158 27.5618 86.6367 27.0978 87.1769 26.7663C87.7172 26.4316 88.3519 26.2642 89.0811 26.2642C89.5517 26.2642 89.9958 26.3404 90.4134 26.4929C90.8344 26.642 91.2056 26.8741 91.5271 27.1889C91.8519 27.5038 92.1071 27.9048 92.2927 28.392C92.4783 28.8759 92.5711 29.4527 92.5711 30.1222V30.674H86.3119V29.4609H90.846C90.8427 29.1162 90.7681 28.8097 90.6222 28.5412C90.4764 28.2694 90.2726 28.0556 90.0107 27.8999C89.7522 27.7441 89.4506 27.6662 89.1059 27.6662C88.738 27.6662 88.4149 27.7557 88.1365 27.9347C87.858 28.1103 87.641 28.3423 87.4852 28.6307C87.3327 28.9157 87.2548 29.2289 87.2515 29.5703V30.6293C87.2515 31.0734 87.3327 31.4545 87.4951 31.7727C87.6575 32.0876 87.8846 32.3295 88.1762 32.4986C88.4679 32.6643 88.8093 32.7472 89.2004 32.7472C89.4622 32.7472 89.6992 32.7107 89.9113 32.6378C90.1234 32.5616 90.3074 32.4505 90.4632 32.3047C90.6189 32.1589 90.7366 31.9782 90.8161 31.7628L92.4965 31.9517C92.3905 32.3958 92.1883 32.7836 91.89 33.1151C91.595 33.4432 91.2172 33.6984 90.7565 33.8807C90.2958 34.0597 89.7688 34.1491 89.1755 34.1491ZM97.6459 34V23.8182H101.464C102.246 23.8182 102.902 23.964 103.433 24.2557C103.966 24.5473 104.369 24.9484 104.641 25.4588C104.916 25.9659 105.054 26.5426 105.054 27.1889C105.054 27.8419 104.916 28.4219 104.641 28.929C104.366 29.4361 103.96 29.8355 103.423 30.1271C102.886 30.4155 102.225 30.5597 101.439 30.5597H98.9086V29.0433H101.191C101.648 29.0433 102.023 28.9638 102.314 28.8047C102.606 28.6456 102.821 28.4268 102.96 28.1484C103.103 27.87 103.174 27.5502 103.174 27.1889C103.174 26.8277 103.103 26.5095 102.96 26.2344C102.821 25.9593 102.604 25.7455 102.309 25.593C102.018 25.4373 101.641 25.3594 101.181 25.3594H99.4903V34H97.6459ZM108.376 23.8182V34H106.576V23.8182H108.376ZM112.424 34.1541C111.94 34.1541 111.504 34.0679 111.116 33.8956C110.732 33.7199 110.427 33.4614 110.202 33.12C109.98 32.7786 109.869 32.3577 109.869 31.8572C109.869 31.4264 109.948 31.0701 110.107 30.7884C110.266 30.5066 110.483 30.2812 110.758 30.1122C111.034 29.9432 111.343 29.8156 111.688 29.7294C112.036 29.6399 112.396 29.5753 112.767 29.5355C113.214 29.4891 113.577 29.4477 113.856 29.4112C114.134 29.3714 114.336 29.3118 114.462 29.2322C114.592 29.1494 114.656 29.0218 114.656 28.8494V28.8196C114.656 28.4451 114.545 28.1551 114.323 27.9496C114.101 27.7441 113.781 27.6413 113.364 27.6413C112.923 27.6413 112.573 27.7375 112.315 27.9297C112.059 28.1219 111.887 28.349 111.797 28.6108L110.117 28.3722C110.25 27.9081 110.468 27.5204 110.773 27.2088C111.078 26.8939 111.451 26.6586 111.892 26.5028C112.333 26.3438 112.82 26.2642 113.354 26.2642C113.722 26.2642 114.088 26.3073 114.452 26.3935C114.817 26.4796 115.15 26.6222 115.452 26.821C115.753 27.0166 115.995 27.2834 116.177 27.6214C116.363 27.9595 116.456 28.3821 116.456 28.8892V34H114.726V32.951H114.666C114.557 33.1631 114.403 33.362 114.204 33.5476C114.008 33.7299 113.761 33.8774 113.463 33.9901C113.168 34.0994 112.822 34.1541 112.424 34.1541ZM112.891 32.8317C113.253 32.8317 113.566 32.7604 113.831 32.6179C114.096 32.4721 114.3 32.2798 114.442 32.0412C114.588 31.8026 114.661 31.5424 114.661 31.2607V30.3608C114.605 30.4072 114.509 30.4503 114.373 30.4901C114.24 30.5298 114.091 30.5646 113.925 30.5945C113.76 30.6243 113.596 30.6508 113.433 30.674C113.271 30.6972 113.13 30.7171 113.011 30.7337C112.742 30.7701 112.502 30.8298 112.29 30.9126C112.078 30.9955 111.91 31.1115 111.788 31.2607C111.665 31.4065 111.604 31.5954 111.604 31.8274C111.604 32.1589 111.725 32.4091 111.967 32.5781C112.208 32.7472 112.517 32.8317 112.891 32.8317ZM119.111 36.8636C118.865 36.8636 118.638 36.8438 118.43 36.804C118.224 36.7675 118.06 36.7244 117.937 36.6747L118.355 35.2727C118.617 35.349 118.851 35.3854 119.056 35.3821C119.262 35.3788 119.442 35.3142 119.598 35.1882C119.757 35.0656 119.891 34.8601 120.001 34.5717L120.155 34.1591L117.386 26.3636H119.295L121.055 32.1307H121.134L122.899 26.3636H124.813L121.756 34.9247C121.613 35.3291 121.424 35.6754 121.189 35.9638C120.954 36.2554 120.665 36.4775 120.324 36.63C119.986 36.7857 119.581 36.8636 119.111 36.8636Z" fill="#788D98" fill-opacity="0.5"/>
</svg>
