<svg width="127" height="44" viewBox="0 0 127 44" fill="none" xmlns="http://www.w3.org/2000/svg">
<path d="M1 8C1 3.85786 4.35786 0.5 8.5 0.5H118.5C122.642 0.5 126 3.85786 126 8V36C126 40.1421 122.642 43.5 118.5 43.5H8.5C4.35786 43.5 1 40.1421 1 36V8Z" stroke="#788D98" stroke-opacity="0.5"/>
<path d="M35.8744 18.7963C35.7653 18.8599 33.1672 20.2035 33.1672 23.1826C33.2897 26.5801 36.4459 27.7716 36.5 27.7716C36.4459 27.8353 36.0235 29.3947 34.7724 31.0294C33.7795 32.4375 32.6775 33.8571 31.004 33.8571C29.4121 33.8571 28.8407 32.9187 27.004 32.9187C25.0315 32.9187 24.4734 33.8571 22.9631 33.8571C21.2897 33.8571 20.106 32.3614 19.059 30.9665C17.6987 29.1409 16.5425 26.2759 16.5017 23.525C16.4742 22.0672 16.7741 20.6343 17.5354 19.4172C18.61 17.7181 20.5284 16.5646 22.6233 16.5266C24.2285 16.4762 25.657 17.5535 26.6366 17.5535C27.5754 17.5535 29.3305 16.5266 31.3163 16.5266C32.1735 16.5274 34.4592 16.768 35.8744 18.7963ZM26.5009 16.2355C26.2151 14.9043 27.004 13.5731 27.7387 12.724C28.6774 11.697 30.1601 11 31.4388 11C31.5204 12.3312 31.0031 13.6368 30.0785 14.5877C29.2489 15.6146 27.8203 16.3877 26.5009 16.2355Z" fill="#788D98" fill-opacity="0.5"/>
<path d="M45.2181 16.608H46.113C46.132 16.8542 46.2432 17.0412 46.4468 17.169C46.6528 17.2969 46.9203 17.3608 47.2494 17.3608C47.5856 17.3608 47.8732 17.2921 48.1123 17.1548C48.3514 17.0152 48.471 16.7902 48.471 16.4801C48.471 16.2978 48.426 16.1392 48.336 16.0043C48.2461 15.867 48.1194 15.7604 47.9561 15.6847C47.7927 15.6089 47.5998 15.571 47.3772 15.571H46.4397V14.8182H47.3772C47.711 14.8182 47.9572 14.7424 48.1159 14.5909C48.2768 14.4394 48.3573 14.25 48.3573 14.0227C48.3573 13.7789 48.2709 13.5836 48.0981 13.4368C47.9253 13.2876 47.6802 13.2131 47.363 13.2131C47.0434 13.2131 46.7771 13.2853 46.564 13.4297C46.3509 13.5717 46.2385 13.7552 46.2267 13.9801H45.346C45.3554 13.6866 45.4454 13.4273 45.6159 13.2024C45.7863 12.9751 46.0183 12.7976 46.3119 12.6697C46.6054 12.5395 46.9416 12.4744 47.3204 12.4744C47.7039 12.4744 48.0365 12.5419 48.3183 12.6768C48.6024 12.8094 48.8213 12.9905 48.9752 13.2202C49.1315 13.4474 49.2096 13.7055 49.2096 13.9943C49.2096 14.3021 49.1232 14.5507 48.9504 14.7401C48.7776 14.9295 48.5609 15.0644 48.3005 15.1449V15.2017C48.5065 15.2159 48.6852 15.2822 48.8367 15.4006C48.9906 15.5166 49.1102 15.6693 49.1954 15.8587C49.2806 16.0457 49.3232 16.2528 49.3232 16.4801C49.3232 16.8116 49.2345 17.1004 49.0569 17.3466C48.8794 17.5904 48.6355 17.7798 48.3254 17.9148C48.0152 18.0473 47.6613 18.1136 47.2636 18.1136C46.8777 18.1136 46.532 18.0509 46.2267 17.9254C45.9213 17.7976 45.6786 17.6212 45.4987 17.3963C45.3211 17.169 45.2276 16.9062 45.2181 16.608ZM52.1056 18.1278C51.7599 18.1278 51.4462 18.0627 51.1645 17.9325C50.8828 17.8 50.6591 17.6094 50.4933 17.3608C50.3276 17.1098 50.2448 16.8068 50.2448 16.4517C50.2448 16.1392 50.3063 15.8859 50.4294 15.6918C50.5525 15.4953 50.7171 15.3414 50.923 15.2301C51.129 15.1188 51.3563 15.036 51.6048 14.9815C51.8558 14.9247 52.1079 14.8797 52.3612 14.8466C52.6927 14.804 52.9614 14.772 53.1673 14.7507C53.3757 14.727 53.5272 14.688 53.6219 14.6335C53.719 14.5791 53.7675 14.4844 53.7675 14.3494V14.321C53.7675 13.9706 53.6716 13.6984 53.4798 13.5043C53.2905 13.3101 53.0028 13.2131 52.6169 13.2131C52.2168 13.2131 51.9031 13.3007 51.6759 13.4759C51.4486 13.651 51.2888 13.8381 51.1965 14.0369L50.401 13.7528C50.5431 13.4214 50.7325 13.1634 50.9692 12.9787C51.2083 12.7917 51.4687 12.6615 51.7504 12.5881C52.0345 12.5123 52.3139 12.4744 52.5885 12.4744C52.7637 12.4744 52.9649 12.4957 53.1922 12.5384C53.4218 12.5786 53.6432 12.6626 53.8563 12.7905C54.0717 12.9183 54.2504 13.1113 54.3925 13.3693C54.5345 13.6274 54.6056 13.973 54.6056 14.4062V18H53.7675V17.2614H53.7249C53.6681 17.3797 53.5734 17.5064 53.4408 17.6413C53.3082 17.7763 53.1318 17.8911 52.9117 17.9858C52.6915 18.0805 52.4228 18.1278 52.1056 18.1278ZM52.2334 17.375C52.5648 17.375 52.8442 17.3099 53.0715 17.1797C53.3011 17.0495 53.4739 16.8814 53.5899 16.6754C53.7083 16.4695 53.7675 16.2528 53.7675 16.0256V15.2585C53.732 15.3011 53.6539 15.3402 53.5331 15.3757C53.4147 15.4089 53.2774 15.4384 53.1212 15.4645C52.9673 15.4882 52.817 15.5095 52.6702 15.5284C52.5258 15.545 52.4086 15.5592 52.3186 15.571C52.1008 15.5994 51.8972 15.6456 51.7078 15.7095C51.5208 15.7711 51.3693 15.8646 51.2533 15.9901C51.1396 16.1132 51.0828 16.2812 51.0828 16.4943C51.0828 16.7855 51.1905 17.0057 51.406 17.1548C51.6238 17.3016 51.8996 17.375 52.2334 17.375ZM59.5017 12.5455V13.3267H56.9733V18H56.1352V12.5455H59.5017ZM60.7251 20.0455V12.5455H61.5347V13.4119H61.6341C61.6957 13.3172 61.7809 13.1965 61.8898 13.0497C62.0011 12.9006 62.1597 12.768 62.3657 12.652C62.574 12.5336 62.8557 12.4744 63.2108 12.4744C63.6701 12.4744 64.075 12.5893 64.4253 12.8189C64.7757 13.0485 65.0492 13.3741 65.2457 13.7955C65.4421 14.2169 65.5404 14.714 65.5404 15.2869C65.5404 15.8646 65.4421 16.3653 65.2457 16.7891C65.0492 17.2105 64.7769 17.5372 64.4289 17.7692C64.0809 17.9988 63.6796 18.1136 63.2251 18.1136C62.8747 18.1136 62.5941 18.0556 62.3834 17.9396C62.1727 17.8213 62.0106 17.6875 61.8969 17.5384C61.7833 17.3868 61.6957 17.2614 61.6341 17.1619H61.5631V20.0455H60.7251ZM61.5489 15.2727C61.5489 15.6847 61.6093 16.0481 61.73 16.3629C61.8508 16.6754 62.0271 16.9205 62.2591 17.098C62.4912 17.2732 62.7752 17.3608 63.1114 17.3608C63.4618 17.3608 63.7542 17.2685 63.9885 17.0838C64.2253 16.8968 64.4028 16.6458 64.5212 16.331C64.642 16.0137 64.7023 15.661 64.7023 15.2727C64.7023 14.8892 64.6431 14.5436 64.5248 14.2358C64.4088 13.9257 64.2324 13.6806 63.9956 13.5007C63.7613 13.3184 63.4665 13.2273 63.1114 13.2273C62.7705 13.2273 62.484 13.3137 62.252 13.4865C62.02 13.657 61.8448 13.8961 61.7265 14.2038C61.6081 14.5092 61.5489 14.8655 61.5489 15.2727ZM67.1633 20.0455C67.0212 20.0455 66.8946 20.0336 66.7833 20.0099C66.672 19.9886 66.5951 19.9673 66.5525 19.946L66.7655 19.2074C66.9691 19.2595 67.1491 19.2784 67.3053 19.2642C67.4616 19.25 67.6001 19.1802 67.7208 19.0547C67.8439 18.9316 67.9564 18.7315 68.0581 18.4545L68.2144 18.0284L66.1974 12.5455H67.1064L68.6121 16.892H68.6689L70.1746 12.5455H71.0837L68.7684 18.7955C68.6642 19.0772 68.5352 19.3104 68.3813 19.495C68.2274 19.6821 68.0487 19.8205 67.8451 19.9105C67.6439 20.0005 67.4166 20.0455 67.1633 20.0455ZM71.849 16.608H72.7439C72.7628 16.8542 72.8741 17.0412 73.0777 17.169C73.2836 17.2969 73.5512 17.3608 73.8802 17.3608C74.2164 17.3608 74.5041 17.2921 74.7432 17.1548C74.9823 17.0152 75.1018 16.7902 75.1018 16.4801C75.1018 16.2978 75.0568 16.1392 74.9669 16.0043C74.8769 15.867 74.7503 15.7604 74.5869 15.6847C74.4236 15.6089 74.2306 15.571 74.0081 15.571H73.0706V14.8182H74.0081C74.3419 14.8182 74.5881 14.7424 74.7467 14.5909C74.9077 14.4394 74.9882 14.25 74.9882 14.0227C74.9882 13.7789 74.9018 13.5836 74.729 13.4368C74.5561 13.2876 74.3111 13.2131 73.9939 13.2131C73.6743 13.2131 73.4079 13.2853 73.1949 13.4297C72.9818 13.5717 72.8693 13.7552 72.8575 13.9801H71.9768C71.9863 13.6866 72.0763 13.4273 72.2467 13.2024C72.4172 12.9751 72.6492 12.7976 72.9427 12.6697C73.2363 12.5395 73.5725 12.4744 73.9513 12.4744C74.3348 12.4744 74.6674 12.5419 74.9491 12.6768C75.2332 12.8094 75.4522 12.9905 75.6061 13.2202C75.7623 13.4474 75.8405 13.7055 75.8405 13.9943C75.8405 14.3021 75.7541 14.5507 75.5812 14.7401C75.4084 14.9295 75.1918 15.0644 74.9314 15.1449V15.2017C75.1373 15.2159 75.3161 15.2822 75.4676 15.4006C75.6215 15.5166 75.741 15.6693 75.8263 15.8587C75.9115 16.0457 75.9541 16.2528 75.9541 16.4801C75.9541 16.8116 75.8653 17.1004 75.6878 17.3466C75.5102 17.5904 75.2664 17.7798 74.9562 17.9148C74.6461 18.0473 74.2922 18.1136 73.8944 18.1136C73.5086 18.1136 73.1629 18.0509 72.8575 17.9254C72.5521 17.7976 72.3095 17.6212 72.1295 17.3963C71.952 17.169 71.8585 16.9062 71.849 16.608ZM77.9694 16.7642L80.5972 12.5455H81.5631V18H80.7251V13.7812L78.1114 18H77.1313V12.5455H77.9694V16.7642ZM82.3559 13.3267V12.5455H86.7877V13.3267H84.998V18H84.1599V13.3267H82.3559ZM90.0139 18.1136C89.4884 18.1136 89.035 17.9976 88.6539 17.7656C88.2751 17.5312 87.9827 17.2045 87.7767 16.7855C87.5731 16.3641 87.4713 15.8741 87.4713 15.3153C87.4713 14.7566 87.5731 14.2642 87.7767 13.8381C87.9827 13.4096 88.2691 13.0758 88.6361 12.8366C89.0054 12.5952 89.4363 12.4744 89.9287 12.4744C90.2128 12.4744 90.4933 12.5218 90.7703 12.6165C91.0473 12.7112 91.2994 12.8651 91.5267 13.0781C91.754 13.2888 91.9351 13.5682 92.07 13.9162C92.205 14.2642 92.2725 14.6927 92.2725 15.2017V15.5568H88.0679V14.8324H91.4202C91.4202 14.5246 91.3586 14.25 91.2355 14.0085C91.1148 13.767 90.942 13.5765 90.7171 13.4368C90.4945 13.2971 90.2317 13.2273 89.9287 13.2273C89.5949 13.2273 89.3061 13.3101 89.0622 13.4759C88.8208 13.6392 88.6349 13.8523 88.5047 14.1151C88.3745 14.3778 88.3094 14.6596 88.3094 14.9602V15.4432C88.3094 15.8551 88.3804 16.2043 88.5225 16.4908C88.6669 16.7749 88.8669 16.9915 89.1226 17.1406C89.3783 17.2874 89.6754 17.3608 90.0139 17.3608C90.2341 17.3608 90.433 17.33 90.6105 17.2685C90.7905 17.2045 90.9455 17.1098 91.0757 16.9844C91.2059 16.8565 91.3066 16.6979 91.3776 16.5085L92.1872 16.7358C92.102 17.0104 91.9588 17.2519 91.7575 17.4602C91.5563 17.6662 91.3077 17.8272 91.0118 17.9432C90.7159 18.0568 90.3833 18.1136 90.0139 18.1136ZM96.3598 18V12.5455H98.5899C99.1771 12.5455 99.6434 12.678 99.9891 12.9432C100.335 13.2083 100.508 13.5587 100.508 13.9943C100.508 14.3258 100.409 14.5826 100.213 14.7649C100.016 14.9448 99.7642 15.0668 99.4564 15.1307C99.6576 15.1591 99.853 15.2301 100.042 15.3438C100.234 15.4574 100.393 15.6136 100.518 15.8125C100.644 16.009 100.706 16.2505 100.706 16.5369C100.706 16.8163 100.635 17.0661 100.493 17.2862C100.351 17.5064 100.148 17.6804 99.8825 17.8082C99.6174 17.9361 99.3002 18 98.9308 18H96.3598ZM97.1553 17.233H98.9308C99.2197 17.233 99.4458 17.1643 99.6091 17.027C99.7725 16.8897 99.8541 16.7027 99.8541 16.4659C99.8541 16.1842 99.7725 15.9628 99.6091 15.8018C99.4458 15.6385 99.2197 15.5568 98.9308 15.5568H97.1553V17.233ZM97.1553 14.8324H98.5899C98.8148 14.8324 99.0078 14.8016 99.1688 14.7401C99.3298 14.6761 99.4529 14.5862 99.5381 14.4702C99.6257 14.3518 99.6695 14.2121 99.6695 14.0511C99.6695 13.8215 99.5736 13.6416 99.3818 13.5114C99.1901 13.3788 98.9261 13.3125 98.5899 13.3125H97.1553V14.8324Z" fill="#788D98" fill-opacity="0.5"/>
<path d="M47.0696 34H45.1009L48.6854 23.8182H50.9624L54.5518 34H52.5831L49.8636 25.9062H49.7841L47.0696 34ZM47.1342 30.0078H52.5036V31.4893H47.1342V30.0078ZM55.8134 36.8636V26.3636H57.5833V27.6264H57.6877C57.7805 27.4408 57.9114 27.2436 58.0804 27.0348C58.2495 26.8227 58.4782 26.642 58.7665 26.4929C59.0549 26.3404 59.4228 26.2642 59.8702 26.2642C60.4602 26.2642 60.9921 26.415 61.4661 26.7166C61.9434 27.0149 62.3212 27.4574 62.5996 28.044C62.8813 28.6274 63.0222 29.3433 63.0222 30.1918C63.0222 31.0303 62.8846 31.7429 62.6096 32.3295C62.3345 32.9162 61.9599 33.3636 61.486 33.6719C61.012 33.9801 60.4751 34.1342 59.8752 34.1342C59.4377 34.1342 59.0748 34.0613 58.7864 33.9155C58.498 33.7696 58.266 33.594 58.0904 33.3885C57.918 33.1797 57.7838 32.9825 57.6877 32.7969H57.6131V36.8636H55.8134ZM57.5783 30.1818C57.5783 30.6757 57.6479 31.1082 57.7871 31.4794C57.9296 31.8506 58.1335 32.1406 58.3986 32.3494C58.6671 32.5549 58.9919 32.6577 59.373 32.6577C59.7708 32.6577 60.1039 32.5516 60.3723 32.3395C60.6408 32.1241 60.843 31.8307 60.9789 31.4595C61.1181 31.085 61.1877 30.6591 61.1877 30.1818C61.1877 29.7079 61.1197 29.2869 60.9838 28.919C60.848 28.5511 60.6458 28.2628 60.3773 28.054C60.1088 27.8452 59.7741 27.7408 59.373 27.7408C58.9886 27.7408 58.6621 27.8419 58.3936 28.044C58.1252 28.2462 57.9213 28.5296 57.7821 28.8942C57.6462 29.2588 57.5783 29.688 57.5783 30.1818ZM64.5634 36.8636V26.3636H66.3333V27.6264H66.4377C66.5305 27.4408 66.6614 27.2436 66.8304 27.0348C66.9995 26.8227 67.2282 26.642 67.5165 26.4929C67.8049 26.3404 68.1728 26.2642 68.6202 26.2642C69.2102 26.2642 69.7421 26.415 70.2161 26.7166C70.6934 27.0149 71.0712 27.4574 71.3496 28.044C71.6313 28.6274 71.7722 29.3433 71.7722 30.1918C71.7722 31.0303 71.6346 31.7429 71.3596 32.3295C71.0845 32.9162 70.7099 33.3636 70.236 33.6719C69.762 33.9801 69.2251 34.1342 68.6252 34.1342C68.1877 34.1342 67.8248 34.0613 67.5364 33.9155C67.248 33.7696 67.016 33.594 66.8404 33.3885C66.668 33.1797 66.5338 32.9825 66.4377 32.7969H66.3631V36.8636H64.5634ZM66.3283 30.1818C66.3283 30.6757 66.3979 31.1082 66.5371 31.4794C66.6796 31.8506 66.8835 32.1406 67.1486 32.3494C67.4171 32.5549 67.7419 32.6577 68.123 32.6577C68.5208 32.6577 68.8539 32.5516 69.1223 32.3395C69.3908 32.1241 69.593 31.8307 69.7289 31.4595C69.8681 31.085 69.9377 30.6591 69.9377 30.1818C69.9377 29.7079 69.8697 29.2869 69.7338 28.919C69.598 28.5511 69.3958 28.2628 69.1273 28.054C68.8588 27.8452 68.5241 27.7408 68.123 27.7408C67.7386 27.7408 67.4121 27.8419 67.1436 28.044C66.8752 28.2462 66.6713 28.5296 66.5321 28.8942C66.3962 29.2588 66.3283 29.688 66.3283 30.1818ZM82.399 26.6172C82.3526 26.183 82.157 25.8449 81.8123 25.603C81.4709 25.361 81.0268 25.2401 80.4799 25.2401C80.0955 25.2401 79.7657 25.2981 79.4906 25.4141C79.2155 25.5301 79.005 25.6875 78.8592 25.8864C78.7134 26.0852 78.6388 26.3123 78.6355 26.5675C78.6355 26.7796 78.6835 26.9635 78.7797 27.1193C78.8791 27.2751 79.0133 27.4077 79.1824 27.517C79.3514 27.6231 79.5386 27.7126 79.7441 27.7855C79.9496 27.8584 80.1568 27.9197 80.3656 27.9695L81.3201 28.2081C81.7046 28.2976 82.0742 28.4186 82.4288 28.571C82.7868 28.7235 83.1066 28.9157 83.3883 29.1477C83.6734 29.3797 83.8987 29.6598 84.0645 29.9879C84.2302 30.3161 84.313 30.7005 84.313 31.1413C84.313 31.7379 84.1606 32.2633 83.8556 32.7173C83.5507 33.1681 83.1099 33.5211 82.5332 33.7763C81.9598 34.0282 81.2654 34.1541 80.4501 34.1541C79.658 34.1541 78.9702 34.0315 78.3869 33.7862C77.8069 33.541 77.3528 33.183 77.0247 32.7124C76.6999 32.2417 76.5242 31.6683 76.4977 30.9922H78.3123C78.3388 31.3468 78.4482 31.6418 78.6404 31.8771C78.8327 32.1125 79.0829 32.2881 79.3912 32.4041C79.7027 32.5201 80.0507 32.5781 80.4352 32.5781C80.8362 32.5781 81.1876 32.5185 81.4892 32.3991C81.7941 32.2765 82.0327 32.1075 82.2051 31.892C82.3774 31.6733 82.4653 31.4181 82.4686 31.1264C82.4653 30.8613 82.3874 30.6425 82.2349 30.4702C82.0824 30.2945 81.8687 30.1487 81.5936 30.0327C81.3218 29.9134 81.0036 29.8073 80.639 29.7145L79.4806 29.4162C78.6421 29.2008 77.9792 28.8743 77.492 28.4368C77.0081 27.996 76.7662 27.411 76.7662 26.6818C76.7662 26.0819 76.9286 25.5566 77.2534 25.1058C77.5815 24.6551 78.0273 24.3054 78.5907 24.0568C79.1542 23.8049 79.7922 23.679 80.5048 23.679C81.2273 23.679 81.8604 23.8049 82.4039 24.0568C82.9508 24.3054 83.38 24.6518 83.6916 25.0959C84.0031 25.5367 84.1639 26.0438 84.1738 26.6172H82.399ZM89.6911 26.3636V27.7557H85.3011V26.3636H89.6911ZM86.3849 24.5341H88.1847V31.7031C88.1847 31.9451 88.2211 32.1307 88.294 32.2599C88.3703 32.3859 88.4697 32.4721 88.5923 32.5185C88.715 32.5649 88.8509 32.5881 89 32.5881C89.1127 32.5881 89.2154 32.5798 89.3082 32.5632C89.4044 32.5466 89.4773 32.5317 89.527 32.5185L89.8303 33.9254C89.7341 33.9586 89.5966 33.995 89.4176 34.0348C89.242 34.0746 89.0265 34.0978 88.7713 34.1044C88.3205 34.1177 87.9145 34.0497 87.5533 33.9006C87.192 33.7481 86.9053 33.5128 86.6932 33.1946C86.4844 32.8764 86.3816 32.4787 86.3849 32.0014V24.5341ZM94.4451 34.1491C93.6994 34.1491 93.0531 33.9851 92.5062 33.657C91.9593 33.3288 91.5351 32.8698 91.2335 32.2798C90.9352 31.6899 90.786 31.0005 90.786 30.2116C90.786 29.4228 90.9352 28.7318 91.2335 28.1385C91.5351 27.5452 91.9593 27.0845 92.5062 26.7564C93.0531 26.4283 93.6994 26.2642 94.4451 26.2642C95.1909 26.2642 95.8372 26.4283 96.3841 26.7564C96.9309 27.0845 97.3535 27.5452 97.6518 28.1385C97.9534 28.7318 98.1042 29.4228 98.1042 30.2116C98.1042 31.0005 97.9534 31.6899 97.6518 32.2798C97.3535 32.8698 96.9309 33.3288 96.3841 33.657C95.8372 33.9851 95.1909 34.1491 94.4451 34.1491ZM94.4551 32.7074C94.8594 32.7074 95.1975 32.5964 95.4693 32.3743C95.7411 32.1489 95.9432 31.8473 96.0758 31.4695C96.2117 31.0916 96.2797 30.6707 96.2797 30.2067C96.2797 29.7393 96.2117 29.3168 96.0758 28.9389C95.9432 28.5578 95.7411 28.2545 95.4693 28.0291C95.1975 27.8037 94.8594 27.6911 94.4551 27.6911C94.0408 27.6911 93.6961 27.8037 93.421 28.0291C93.1492 28.2545 92.9454 28.5578 92.8095 28.9389C92.6769 29.3168 92.6106 29.7393 92.6106 30.2067C92.6106 30.6707 92.6769 31.0916 92.8095 31.4695C92.9454 31.8473 93.1492 32.1489 93.421 32.3743C93.6961 32.5964 94.0408 32.7074 94.4551 32.7074ZM99.6317 34V26.3636H101.377V27.6364H101.456C101.596 27.1955 101.834 26.8558 102.172 26.6172C102.514 26.3752 102.903 26.2543 103.341 26.2543C103.44 26.2543 103.551 26.2592 103.674 26.2692C103.8 26.2758 103.904 26.2874 103.987 26.304V27.9595C103.911 27.933 103.79 27.9098 103.624 27.8899C103.462 27.8667 103.304 27.8551 103.152 27.8551C102.824 27.8551 102.529 27.9264 102.267 28.0689C102.008 28.2081 101.804 28.402 101.655 28.6506C101.506 28.8991 101.431 29.1858 101.431 29.5107V34H99.6317ZM108.249 34.1491C107.483 34.1491 106.822 33.9901 106.265 33.6719C105.712 33.3504 105.286 32.8963 104.987 32.3097C104.689 31.7197 104.54 31.0253 104.54 30.2266C104.54 29.4411 104.689 28.7517 104.987 28.1584C105.289 27.5618 105.71 27.0978 106.25 26.7663C106.79 26.4316 107.425 26.2642 108.154 26.2642C108.625 26.2642 109.069 26.3404 109.487 26.4929C109.908 26.642 110.279 26.8741 110.6 27.1889C110.925 27.5038 111.18 27.9048 111.366 28.392C111.552 28.8759 111.644 29.4527 111.644 30.1222V30.674H105.385V29.4609H109.919C109.916 29.1162 109.841 28.8097 109.695 28.5412C109.55 28.2694 109.346 28.0556 109.084 27.8999C108.825 27.7441 108.524 27.6662 108.179 27.6662C107.811 27.6662 107.488 27.7557 107.21 27.9347C106.931 28.1103 106.714 28.3423 106.558 28.6307C106.406 28.9157 106.328 29.2289 106.325 29.5703V30.6293C106.325 31.0734 106.406 31.4545 106.568 31.7727C106.731 32.0876 106.958 32.3295 107.249 32.4986C107.541 32.6643 107.883 32.7472 108.274 32.7472C108.535 32.7472 108.772 32.7107 108.985 32.6378C109.197 32.5616 109.381 32.4505 109.536 32.3047C109.692 32.1589 109.81 31.9782 109.889 31.7628L111.57 31.9517C111.464 32.3958 111.262 32.7836 110.963 33.1151C110.668 33.4432 110.29 33.6984 109.83 33.8807C109.369 34.0597 108.842 34.1491 108.249 34.1491Z" fill="#788D98" fill-opacity="0.5"/>
</svg>
