<svg width="70" height="40" viewBox="0 0 70 40" fill="none" xmlns="http://www.w3.org/2000/svg">
<rect width="70" height="40" rx="6" fill="white"/>
<g clip-path="url(#clip0_133_1566)">
<path d="M27.7566 26.84L30.0843 13.2773H33.8075L31.4781 26.84H27.7566ZM44.9296 13.5696C44.1922 13.2949 43.0362 13 41.5927 13C37.9137 13 35.3223 14.8395 35.3001 17.476C35.2795 19.4248 37.1503 20.5121 38.5625 21.1608C40.0119 21.8257 40.499 22.2496 40.492 22.8432C40.4827 23.7524 39.3347 24.1675 38.2644 24.1675C36.7743 24.1675 35.9827 23.9619 34.7599 23.4558L34.2799 23.2402L33.7575 26.2763C34.6271 26.6551 36.2352 26.983 37.905 27C41.8188 27 44.3595 25.1815 44.3884 22.366C44.4023 20.8231 43.4105 19.6491 41.2623 18.681C39.9609 18.0536 39.1639 17.6349 39.1724 16.9996C39.1724 16.4358 39.847 15.833 41.3047 15.833C42.5222 15.8142 43.4042 16.0778 44.0915 16.3526L44.4251 16.5091L44.9296 13.5696ZM54.5108 13.2771H51.6338C50.7427 13.2771 50.0756 13.5186 49.6843 14.4018L44.1547 26.8312H48.0644C48.0644 26.8312 48.7036 25.1599 48.8481 24.793C49.2754 24.793 53.0735 24.7989 53.6165 24.7989C53.7278 25.2737 54.0695 26.8312 54.0695 26.8312H57.5243L54.5108 13.2771ZM49.9462 22.0351C50.2541 21.2537 51.4296 18.2437 51.4296 18.2437C51.4077 18.2798 51.7353 17.4584 51.9232 16.9492L52.1749 18.1186C52.1749 18.1186 52.8878 21.3561 53.0368 22.0349L49.9462 22.0351ZM24.5959 13.2771L20.9508 22.5263L20.5624 20.6468C19.8838 18.48 17.7696 16.1325 15.406 14.9572L18.7391 26.8185L22.6784 26.8141L28.54 13.2769L24.5959 13.2771Z" fill="#0E4595"/>
<path d="M17.5513 13.2778H11.5476L11.5 13.56C16.1709 14.6827 19.2614 17.3957 20.5446 20.656L19.2391 14.4233C19.0138 13.5645 18.36 13.3078 17.5513 13.2778Z" fill="#F2AE14"/>
</g>
<defs>
<clipPath id="clip0_133_1566">
<rect width="47" height="14" fill="white" transform="translate(11.5 13)"/>
</clipPath>
</defs>
</svg>
