<svg width="16" height="16" viewBox="0 0 16 16" fill="none" xmlns="http://www.w3.org/2000/svg">
<path d="M0 16L1.13085 11.8935C0.431709 10.6882 0.0649474 9.32319 0.0687678 7.92776C0.0687678 3.55513 3.6447 0 8.03438 0C10.1662 0 12.1681 0.825095 13.6695 2.32319C15.1748 3.82129 16.0038 5.81369 16 7.93156C16 12.3042 12.4241 15.8593 8.03056 15.8593H8.02674C6.6934 15.8593 5.38299 15.5247 4.21776 14.8935L0 16ZM4.42024 13.4601L4.66093 13.6046C5.67717 14.2053 6.8424 14.5209 8.03056 14.5247H8.03438C11.6829 14.5247 14.6552 11.5703 14.6552 7.93536C14.6552 6.17491 13.9675 4.52091 12.7182 3.27376C11.4689 2.02662 9.80324 1.34221 8.03438 1.34221C4.38586 1.3384 1.41356 4.29278 1.41356 7.92776C1.41356 9.1711 1.76122 10.384 2.42598 11.4335L2.58261 11.6844L1.91404 14.1141L4.42024 13.4601Z" fill="#212121"/>
<path d="M0 16L1.13085 11.8935C0.431709 10.6882 0.0649474 9.32319 0.0687678 7.92776C0.0687678 3.55513 3.6447 0 8.03438 0C10.1662 0 12.1681 0.825095 13.6695 2.32319C15.1748 3.82129 16.0038 5.81369 16 7.93156C16 12.3042 12.4241 15.8593 8.03056 15.8593H8.02674C6.6934 15.8593 5.38299 15.5247 4.21776 14.8935L0 16ZM4.42024 13.4601L4.66093 13.6046C5.67717 14.2053 6.8424 14.5209 8.03056 14.5247H8.03438C11.6829 14.5247 14.6552 11.5703 14.6552 7.93536C14.6552 6.1749 13.9675 4.52091 12.7182 3.27376C11.4689 2.02662 9.80324 1.34221 8.03438 1.34221C4.38586 1.3384 1.41356 4.29278 1.41356 7.92776C1.41356 9.1711 1.76122 10.384 2.42598 11.4335L2.58261 11.6844L1.91404 14.1141L4.42024 13.4601Z" fill="#212121"/>
<path fill-rule="evenodd" clip-rule="evenodd" d="M6.04368 4.61163C5.89468 4.28083 5.73804 4.27323 5.59668 4.26943C5.48207 4.26563 5.34836 4.26562 5.21464 4.26562C5.08093 4.26562 4.86698 4.31505 4.6836 4.51277C4.50022 4.71049 3.98828 5.18958 3.98828 6.16677C3.98828 7.14015 4.7027 8.08312 4.80203 8.2162C4.90137 8.34928 6.18121 10.4139 8.20222 11.2086C9.88321 11.8702 10.2271 11.7371 10.59 11.7029C10.9529 11.6687 11.7667 11.2238 11.9348 10.7599C12.0991 10.296 12.0991 9.90061 12.0494 9.81696C11.9997 9.73331 11.866 9.68388 11.6674 9.58502C11.4687 9.48616 10.4907 9.00707 10.3073 8.93863C10.1239 8.87399 9.99019 8.83977 9.86029 9.03749C9.72658 9.23521 9.34453 9.68007 9.22992 9.81315C9.11531 9.94623 8.99687 9.96144 8.79821 9.86258C8.59955 9.76372 7.95771 9.5546 7.19745 8.87779C6.60528 8.35308 6.20413 7.70289 6.08952 7.50517C5.97491 7.30745 6.07806 7.20099 6.17739 7.10213C6.26526 7.01467 6.37605 6.87019 6.47539 6.75612C6.57472 6.64205 6.6091 6.5584 6.67405 6.42532C6.739 6.29224 6.70843 6.17817 6.65877 6.07931C6.6091 5.98426 6.21942 5.00327 6.04368 4.61163Z" fill="#212121"/>
</svg>
