<svg xmlns="http://www.w3.org/2000/svg" width="23" height="22" viewBox="0 0 23 22" fill="none">
    <path d="M11.9865 18.3364L17.5592 21.855C18.2779 22.3058 19.1624 21.6351 18.9523 20.8104L17.338 14.499C17.2944 14.324 17.3013 14.1404 17.358 13.9692C17.4148 13.798 17.519 13.6462 17.6587 13.5314L22.6564 9.38608C23.3087 8.8473 22.977 7.75874 22.1256 7.70376L15.6021 7.28593C15.4241 7.27563 15.253 7.214 15.1096 7.10855C14.9663 7.0031 14.8569 6.85842 14.7949 6.69217L12.3624 0.600657C12.298 0.424622 12.1807 0.272555 12.0265 0.165098C11.8722 0.0576409 11.6884 0 11.5 0C11.3116 0 11.1278 0.0576409 10.9735 0.165098C10.8193 0.272555 10.702 0.424622 10.6376 0.600657L8.20505 6.69217C8.14306 6.85842 8.03371 7.0031 7.89037 7.10855C7.74702 7.214 7.5759 7.27563 7.3979 7.28593L0.874351 7.70376C0.0229728 7.75874 -0.308733 8.8473 0.343622 9.38608L5.34133 13.5314C5.48101 13.6462 5.58522 13.798 5.64195 13.9692C5.69869 14.1404 5.70563 14.324 5.66197 14.499L4.1693 20.3486C3.91499 21.3382 4.97645 22.1409 5.82783 21.6021L11.0135 18.3364C11.1589 18.2445 11.3277 18.1956 11.5 18.1956C11.6723 18.1956 11.8411 18.2445 11.9865 18.3364Z" fill="#FED286"/>
</svg>