<svg xmlns="http://www.w3.org/2000/svg" width="118" height="18" viewBox="0 0 118 18" fill="none">
    <g clip-path="url(#clip0_4466_95005)">
        <path d="M6.60811 5.83288H2.10427V13.4681H0V3.87793H8.71239V13.4681H6.60811V5.83288Z" fill="#FF4A37"/>
        <path d="M10.7598 3.87756H12.864V4.92879C13.2947 4.52305 13.7562 4.20953 14.2484 3.98821C14.7406 3.7669 15.2944 3.65625 15.9097 3.65625C16.5988 3.65625 17.2326 3.78535 17.8109 4.04354C18.4016 4.28944 18.9061 4.63985 19.3245 5.09478C19.7429 5.5374 20.069 6.06611 20.3028 6.68081C20.5366 7.28331 20.6535 7.94109 20.6535 8.65417C20.6535 9.39189 20.5243 10.0681 20.2659 10.6829C20.0198 11.2853 19.6814 11.8079 19.2507 12.2505C18.82 12.6808 18.3032 13.019 17.7002 13.2649C17.1095 13.5107 16.4757 13.6337 15.7989 13.6337C15.1959 13.6337 14.6545 13.5415 14.1746 13.3571C13.6947 13.1726 13.2578 12.9144 12.864 12.5825V17.1562H10.7598V3.87756ZM15.4852 11.6788C15.9036 11.6788 16.2912 11.6112 16.648 11.4759C17.0172 11.3407 17.3371 11.144 17.6079 10.8858C17.8786 10.6153 18.0878 10.2956 18.2355 9.92672C18.3954 9.54557 18.4754 9.11526 18.4754 8.63578C18.4754 8.19315 18.4077 7.78742 18.2724 7.41853C18.137 7.03738 17.9401 6.71771 17.6817 6.45952C17.4356 6.18902 17.1403 5.97999 16.7957 5.83251C16.4511 5.68496 16.0697 5.61117 15.6513 5.61117C15.0114 5.61117 14.4453 5.76484 13.9531 6.07224C13.4731 6.37959 13.1102 6.74848 12.864 7.17879V10.0927C13.1102 10.6091 13.4608 11.0026 13.9162 11.2731C14.3715 11.5436 14.8945 11.6788 15.4852 11.6788Z" fill="#FF4A37"/>
        <path d="M21.748 8.65417C21.748 7.92877 21.8711 7.26486 22.1172 6.66242C22.3633 6.04766 22.7141 5.51895 23.1694 5.07633C23.6247 4.63371 24.1661 4.28944 24.7937 4.04354C25.4213 3.78535 26.1166 3.65625 26.8795 3.65625C27.6302 3.65625 28.3193 3.78535 28.9469 4.04354C29.5868 4.28944 30.1344 4.63371 30.5897 5.07633C31.045 5.51895 31.3957 6.04766 31.6418 6.66242C31.9003 7.26486 32.0294 7.92877 32.0294 8.65417C32.0294 9.37963 31.9003 10.0497 31.6418 10.6644C31.3957 11.2669 31.045 11.7894 30.5897 12.2321C30.1344 12.6747 29.5868 13.0189 28.9469 13.2649C28.3193 13.5107 27.6302 13.6337 26.8795 13.6337C26.1289 13.6337 25.4398 13.5107 24.8122 13.2649C24.1846 13.0189 23.6431 12.6747 23.1878 12.2321C22.7325 11.7894 22.3756 11.2669 22.1172 10.6644C21.8711 10.0497 21.748 9.37963 21.748 8.65417ZM23.9262 8.65417C23.9262 9.08454 23.9939 9.48414 24.1292 9.85297C24.2769 10.2218 24.4799 10.5415 24.7383 10.812C24.9968 11.0825 25.3044 11.2976 25.6613 11.4575C26.0304 11.605 26.4365 11.6788 26.8795 11.6788C27.3225 11.6788 27.7224 11.6112 28.0793 11.4759C28.4485 11.3284 28.7623 11.1255 29.0207 10.8673C29.2791 10.5968 29.4822 10.2772 29.6298 9.90832C29.7775 9.53944 29.8513 9.12139 29.8513 8.65417C29.8513 8.18696 29.7714 7.76897 29.6114 7.40008C29.4637 7.01893 29.2545 6.69926 28.9838 6.44107C28.7131 6.17057 28.3993 5.96773 28.0424 5.83251C27.6855 5.68496 27.2979 5.61117 26.8795 5.61117C26.4611 5.61117 26.0674 5.68496 25.6982 5.83251C25.3413 5.96773 25.0275 6.17057 24.7568 6.44107C24.4984 6.69926 24.2953 7.01893 24.1477 7.40008C24 7.76897 23.9262 8.18696 23.9262 8.65417Z" fill="#FF4A37"/>
        <path d="M32.5898 11.5132H33.7011C34.1332 10.9599 34.4234 10.3267 34.5716 9.61361C34.7197 8.90047 34.7938 8.09514 34.7938 7.19761V3.87793H42.5354V11.5132H43.8874V15.6628H41.9243V13.4681H34.553V15.6628H32.5898V11.5132ZM40.4241 11.5132V5.83288H36.794V8.28571C36.794 8.87589 36.7138 9.46606 36.5532 10.0562C36.3928 10.6341 36.1705 11.1198 35.8865 11.5132H40.4241Z" fill="#3981F1"/>
        <path d="M44.3164 8.65417C44.3164 7.92877 44.4399 7.26486 44.6868 6.66242C44.9337 6.04766 45.2856 5.51895 45.7425 5.07633C46.1993 4.63371 46.7426 4.28944 47.3723 4.04354C48.002 3.78535 48.6996 3.65625 49.4651 3.65625C50.2183 3.65625 50.9097 3.78535 51.5394 4.04354C52.1815 4.28944 52.7309 4.63371 53.1878 5.07633C53.6446 5.51895 53.9965 6.04766 54.2434 6.66242C54.5027 7.26486 54.6324 7.92877 54.6324 8.65417C54.6324 9.37963 54.5027 10.0497 54.2434 10.6644C53.9965 11.2669 53.6446 11.7894 53.1878 12.2321C52.7309 12.6747 52.1815 13.0189 51.5394 13.2649C50.9097 13.5107 50.2183 13.6337 49.4651 13.6337C48.712 13.6337 48.0205 13.5107 47.3908 13.2649C46.7611 13.0189 46.2178 12.6747 45.761 12.2321C45.3041 11.7894 44.9461 11.2669 44.6868 10.6644C44.4399 10.0497 44.3164 9.37963 44.3164 8.65417ZM46.5018 8.65417C46.5018 9.08454 46.5697 9.48414 46.7055 9.85297C46.8537 10.2218 47.0574 10.5415 47.3167 10.812C47.576 11.0825 47.8847 11.2976 48.2428 11.4575C48.6132 11.605 49.0206 11.6788 49.4651 11.6788C49.9096 11.6788 50.3109 11.6112 50.669 11.4759C51.0394 11.3284 51.3542 11.1255 51.6135 10.8673C51.8728 10.5968 52.0765 10.2772 52.2247 9.90832C52.3728 9.53944 52.4469 9.12139 52.4469 8.65417C52.4469 8.18696 52.3667 7.76897 52.2062 7.40008C52.058 7.01893 51.8481 6.69926 51.5764 6.44107C51.3048 6.17057 50.99 5.96773 50.6319 5.83251C50.2738 5.68496 49.8849 5.61117 49.4651 5.61117C49.0453 5.61117 48.6502 5.68496 48.2798 5.83251C47.9218 5.96773 47.6069 6.17057 47.3352 6.44107C47.076 6.69926 46.8722 7.01893 46.7241 7.40008C46.5759 7.76897 46.5018 8.18696 46.5018 8.65417Z" fill="#3981F1"/>
        <path d="M55.9395 3.87793H58.0508V7.76934L62.2178 3.87793H64.9774L60.2916 8.21197L65.1442 13.4681H62.4404L58.7548 9.52136L58.0508 10.2037V13.4681H55.9395V3.87793Z" fill="#3981F1"/>
        <path d="M65.8105 3.87793H74.8859V5.83288H71.4037V13.4681H69.2927V5.83288H65.8105V3.87793Z" fill="#3981F1"/>
        <path d="M75.3477 8.65417C75.3477 7.92877 75.4713 7.26486 75.7185 6.66242C75.9652 6.04766 76.3169 5.51895 76.7738 5.07633C77.2306 4.63371 77.774 4.28944 78.4039 4.04354C79.0332 3.78535 79.7311 3.65625 80.4964 3.65625C81.2499 3.65625 81.941 3.78535 82.5709 4.04354C83.2132 4.28944 83.7622 4.63371 84.219 5.07633C84.6758 5.51895 85.0282 6.04766 85.2748 6.66242C85.5344 7.26486 85.6637 7.92877 85.6637 8.65417C85.6637 9.37963 85.5344 10.0497 85.2748 10.6644C85.0282 11.2669 84.6758 11.7894 84.219 12.2321C83.7622 12.6747 83.2132 13.0189 82.5709 13.2649C81.941 13.5107 81.2499 13.6337 80.4964 13.6337C79.7434 13.6337 79.0517 13.5107 78.4224 13.2649C77.7925 13.0189 77.2491 12.6747 76.7923 12.2321C76.3355 11.7894 75.9776 11.2669 75.7185 10.6644C75.4713 10.0497 75.3477 9.37963 75.3477 8.65417ZM77.5335 8.65417C77.5335 9.08454 77.6015 9.48414 77.7369 9.85297C77.8852 10.2218 78.0886 10.5415 78.3482 10.812C78.6073 11.0825 78.9163 11.2976 79.2742 11.4575C79.6445 11.605 80.0519 11.6788 80.4964 11.6788C80.9409 11.6788 81.3426 11.6112 81.7005 11.4759C82.0708 11.3284 82.3855 11.1255 82.6451 10.8673C82.9041 10.5968 83.1081 10.2772 83.2559 9.90832C83.4042 9.53944 83.4784 9.12139 83.4784 8.65417C83.4784 8.18696 83.3981 7.76897 83.2374 7.40008C83.0896 7.01893 82.8794 6.69926 82.608 6.44107C82.3361 6.17057 82.0214 5.96773 81.6635 5.83251C81.3055 5.68496 80.9161 5.61117 80.4964 5.61117C80.0766 5.61117 79.6816 5.68496 79.3113 5.83251C78.9534 5.96773 78.6382 6.17057 78.3668 6.44107C78.1072 6.69926 77.9038 7.01893 77.7554 7.40008C77.6076 7.76897 77.5335 8.18696 77.5335 8.65417Z" fill="#3981F1"/>
        <path d="M86.9531 3.87756H89.0642V4.92879C89.4963 4.52305 89.9593 4.20953 90.4532 3.98821C90.9471 3.7669 91.5029 3.65625 92.1204 3.65625C92.8115 3.65625 93.4476 3.78535 94.0281 4.04354C94.6203 4.28944 95.1266 4.63985 95.5463 5.09478C95.9661 5.5374 96.2937 6.06611 96.528 6.68081C96.7629 7.28331 96.8797 7.94109 96.8797 8.65417C96.8797 9.39189 96.7505 10.0681 96.4909 10.6829C96.2442 11.2853 95.9048 11.8079 95.4722 12.2505C95.0401 12.6808 94.5214 13.019 93.9168 13.2649C93.324 13.5107 92.6879 13.6337 92.0091 13.6337C91.404 13.6337 90.8606 13.5415 90.3791 13.3571C89.8975 13.1726 89.4592 12.9144 89.0642 12.5825V17.1562H86.9531V3.87756ZM91.6945 11.6788C92.1142 11.6788 92.5031 11.6112 92.861 11.4759C93.2313 11.3407 93.5527 11.144 93.8241 10.8858C94.0955 10.6153 94.3056 10.2956 94.454 9.92672C94.6141 9.54557 94.6945 9.11526 94.6945 8.63578C94.6945 8.19315 94.6265 7.78742 94.4911 7.41853C94.3551 7.03738 94.1573 6.71771 93.8983 6.45952C93.651 6.18902 93.3549 5.97999 93.0093 5.83251C92.6632 5.68496 92.2805 5.61117 91.8608 5.61117C91.2191 5.61117 90.651 5.76484 90.1571 6.07224C89.6756 6.37959 89.3114 6.74848 89.0642 7.17879V10.0927C89.3114 10.6091 89.6632 11.0026 90.12 11.2731C90.5768 11.5436 91.1017 11.6788 91.6945 11.6788Z" fill="#3981F1"/>
        <path d="M97.9277 8.65417C97.9277 7.92877 98.0514 7.26486 98.298 6.66242C98.5453 6.04766 98.897 5.51895 99.3539 5.07633C99.8107 4.63371 100.354 4.28944 100.983 4.04354C101.613 3.78535 102.311 3.65625 103.076 3.65625C103.829 3.65625 104.521 3.78535 105.151 4.04354C105.793 4.28944 106.342 4.63371 106.799 5.07633C107.256 5.51895 107.608 6.04766 107.855 6.66242C108.114 7.26486 108.244 7.92877 108.244 8.65417C108.244 9.37963 108.114 10.0497 107.855 10.6644C107.608 11.2669 107.256 11.7894 106.799 12.2321C106.342 12.6747 105.793 13.0189 105.151 13.2649C104.521 13.5107 103.829 13.6337 103.076 13.6337C102.324 13.6337 101.632 13.5107 101.002 13.2649C100.373 13.0189 99.8292 12.6747 99.3724 12.2321C98.9156 11.7894 98.5576 11.2669 98.298 10.6644C98.0514 10.0497 97.9277 9.37963 97.9277 8.65417ZM100.113 8.65417C100.113 9.08454 100.181 9.48414 100.317 9.85297C100.465 10.2218 100.669 10.5415 100.928 10.812C101.187 11.0825 101.496 11.2976 101.854 11.4575C102.225 11.605 102.632 11.6788 103.076 11.6788C103.521 11.6788 103.922 11.6112 104.28 11.4759C104.651 11.3284 104.966 11.1255 105.225 10.8673C105.484 10.5968 105.688 10.2772 105.836 9.90832C105.984 9.53944 106.058 9.12139 106.058 8.65417C106.058 8.18696 105.978 7.76897 105.817 7.40008C105.669 7.01893 105.46 6.69926 105.188 6.44107C104.916 6.17057 104.601 5.96773 104.243 5.83251C103.885 5.68496 103.496 5.61117 103.076 5.61117C102.657 5.61117 102.262 5.68496 101.891 5.83251C101.533 5.96773 101.218 6.17057 100.947 6.44107C100.687 6.69926 100.484 7.01893 100.335 7.40008C100.187 7.76897 100.113 8.18696 100.113 8.65417Z" fill="#3981F1"/>
        <path d="M109.555 3.87793H113.666C115.012 3.87793 116.024 4.0685 116.704 4.44965C117.383 4.8308 117.723 5.48859 117.723 6.42299C117.723 6.86563 117.624 7.24064 117.426 7.54799C117.229 7.8554 116.969 8.13204 116.648 8.37791C117.105 8.55009 117.444 8.83899 117.667 9.24472C117.889 9.63819 118 10.0931 118 10.6095C118 11.5685 117.661 12.2878 116.981 12.7673C116.303 13.2345 115.346 13.4681 114.111 13.4681H109.555V3.87793ZM111.666 9.50291V11.5685H113.907C114.537 11.5685 115.012 11.4886 115.333 11.3287C115.654 11.1689 115.815 10.9107 115.815 10.5542C115.815 10.173 115.66 9.90251 115.352 9.7427C115.055 9.58284 114.592 9.50291 113.963 9.50291H111.666ZM111.666 5.77753V7.67709H114.148C114.58 7.67709 114.92 7.59721 115.166 7.43735C115.414 7.27754 115.537 7.03162 115.537 6.69963C115.537 6.30622 115.37 6.05416 115.037 5.94352C114.716 5.83288 114.24 5.77753 113.611 5.77753H111.666Z" fill="#3981F1"/>
    </g>
    <defs>
        <clipPath id="clip0_4466_95005">
            <rect width="118" height="18" fill="white"/>
        </clipPath>
    </defs>
</svg>