<svg xmlns="http://www.w3.org/2000/svg" width="16" height="16" viewBox="0 0 16 16" fill="none">
    <path d="M8.33844 12.7558L12.2151 15.2035C12.715 15.5171 13.3304 15.0505 13.1842 14.4768L12.0612 10.0863C12.0309 9.96456 12.0357 9.8368 12.0752 9.71771C12.1146 9.59862 12.1871 9.49304 12.2843 9.41314L15.761 6.52944C16.2148 6.15464 15.984 5.39738 15.3918 5.35914L10.8536 5.06847C10.7298 5.06131 10.6108 5.01843 10.5111 4.94508C10.4113 4.87173 10.3353 4.77107 10.2921 4.65543L8.59996 0.417849C8.55516 0.295389 8.47356 0.189603 8.36623 0.114851C8.2589 0.040098 8.13104 0 8 0C7.86896 0 7.7411 0.040098 7.63377 0.114851C7.52644 0.189603 7.44484 0.295389 7.40004 0.417849L5.70786 4.65543C5.66474 4.77107 5.58867 4.87173 5.48895 4.94508C5.38923 5.01843 5.27019 5.06131 5.14637 5.06847L0.608244 5.35914C0.0159811 5.39738 -0.214771 6.15464 0.239041 6.52944L3.71571 9.41314C3.81288 9.49304 3.88537 9.59862 3.92484 9.71771C3.9643 9.8368 3.96913 9.96456 3.93876 10.0863L2.90038 14.1556C2.72347 14.844 3.46188 15.4023 4.05414 15.0275L7.66156 12.7558C7.76272 12.6918 7.88012 12.6578 8 12.6578C8.11988 12.6578 8.23728 12.6918 8.33844 12.7558Z" fill="#FED286"/>
</svg>