<svg width="92" height="24" viewBox="0 0 92 24" fill="none" xmlns="http://www.w3.org/2000/svg">
<g clip-path="url(#clip0_4689_810797)">
<g clip-path="url(#clip1_4689_810797)">
<path d="M11.9675 24.001C18.5773 24.001 23.935 18.6287 23.935 12.001C23.935 5.37323 18.5773 0.000976562 11.9675 0.000976562C5.35769 0.000976562 0 5.37323 0 12.001C0 18.628 5.35769 24.001 11.9675 24.001Z" fill="#FA3E2C"/>
<path d="M13.671 6.85648H12.5289C10.5707 6.85648 9.59162 7.86898 9.59162 9.38623C9.59162 11.0737 10.2446 11.9167 11.7129 12.9285L12.8558 13.7722L9.59162 19.0012H6.98047L10.0808 14.2777C8.28567 12.9285 7.30658 11.748 7.30658 9.55498C7.30658 6.85648 9.1017 5.00098 12.5289 5.00098H15.9561V19.0012H13.671V6.85648Z" fill="white"/>
<path d="M35.251 19.0015C38.2182 19.0015 40.6034 16.711 40.6034 11.9515C40.6034 7.19202 38.2182 4.99902 35.2502 4.99902C32.2614 4.99902 29.918 7.28952 29.918 12.049C29.918 16.7875 32.2614 19.0015 35.251 19.0015ZM35.251 17.158C33.5516 17.158 32.3212 15.613 32.3212 12.0108C32.3212 8.38827 33.5516 6.83877 35.2502 6.83877C36.9481 6.83877 38.201 8.38752 38.201 12.0108C38.201 15.6123 36.9496 17.158 35.251 17.158ZM49.3711 10.7935V8.95452H41.5803V10.7935H44.3141V18.8058H46.6373V10.7935H49.3711ZM53.1409 17.158C51.9486 17.158 50.7773 16.7283 50.1527 16.2595V18.1585C50.6023 18.529 51.7362 19.0015 53.4139 19.0015C55.8926 19.0015 57.2046 17.8855 57.2046 15.9063C57.2046 14.752 56.479 13.969 55.1925 13.693C56.402 13.3008 56.9114 12.4405 56.9114 11.3425C56.9114 9.67752 55.6002 8.75802 53.4932 8.75802C51.9695 8.75802 50.9725 9.22677 50.407 9.58002V11.479C51.0316 11.0703 51.8895 10.5978 53.1588 10.5978C54.0205 10.5978 54.568 11.0103 54.568 11.734C54.568 12.5178 54.0968 12.9303 53.1416 12.9303H51.7736V14.6545H53.1409C54.3301 14.6545 54.8006 15.004 54.8006 15.8853C54.8006 16.669 54.2329 17.158 53.1409 17.158ZM58.7671 8.95452V18.8058H62.3005C64.5848 18.8058 66.2064 17.6305 66.2064 15.3183C66.2064 13.126 64.7628 11.9688 62.3386 11.9688H61.0895V8.95377L58.7671 8.95452ZM67.0673 8.95452V18.8058H69.3905V8.95452H67.0673ZM62.1643 16.9623H61.0903V13.8123H62.2234C63.2175 13.8123 63.8031 14.2623 63.8031 15.3955C63.8031 16.5325 63.1614 16.9623 62.1643 16.9623ZM75.4064 18.805C77.7116 18.805 79.0789 17.8263 79.0789 15.9445C79.0789 14.6545 78.2973 13.9098 76.9861 13.675C78.0429 13.3818 78.7056 12.6363 78.7056 11.4618C78.7056 9.77577 77.5927 8.95452 75.4445 8.95452H71.3434V18.8058H75.4064V18.805ZM75.173 10.678C76.01 10.678 76.4804 11.0493 76.4804 11.815C76.4804 12.5005 75.9711 12.91 75.0922 12.91H73.6105V10.678H75.173ZM75.2111 14.6125C76.2052 14.6125 76.7348 14.965 76.7348 15.7878C76.7348 16.7103 76.1491 17.0815 75.2111 17.0815H73.6105V14.6125H75.2111ZM80.6414 8.95452V18.8058H84.174C86.4583 18.8058 88.0799 17.6305 88.0799 15.3183C88.0799 13.126 86.6363 11.9688 84.2122 11.9688H82.9638V8.95377L80.6414 8.95452ZM88.9416 8.95452V18.8058H91.264V8.95452H88.9416ZM84.0379 16.9623H82.9638V13.8123H84.097C85.091 13.8123 85.6767 14.2623 85.6767 15.3955C85.6767 16.5325 85.0349 16.9623 84.0379 16.9623Z" fill="black"/>
</g>
</g>
<defs>
<clipPath id="clip0_4689_810797">
<rect width="92" height="24" fill="white"/>
</clipPath>
<clipPath id="clip1_4689_810797">
<rect width="92" height="24" fill="white"/>
</clipPath>
</defs>
</svg>
