<svg xmlns="http://www.w3.org/2000/svg" width="37" height="42" viewBox="0 0 37 42" fill="none">
    <path d="M18.1778 36.2657C28.1923 36.2657 36.3106 28.1473 36.3106 18.1328C36.3106 8.11835 28.1923 0 18.1778 0C8.16327 0 0.0449219 8.11835 0.0449219 18.1328C0.0449219 28.1473 8.16327 36.2657 18.1778 36.2657Z" fill="#7668E7"/>
    <path d="M18 30C24.6274 30 30 24.6274 30 18C30 11.3726 24.6274 6 18 6C11.3726 6 6 11.3726 6 18C6 24.6274 11.3726 30 18 30Z" fill="white"/>
    <path d="M18 24C21.3137 24 24 21.3137 24 18C24 14.6863 21.3137 12 18 12C14.6863 12 12 14.6863 12 18C12 21.3137 14.6863 24 18 24Z" fill="#7668E7"/>
    <path d="M18.1785 42L13.3466 34.3918L23.0103 34.3918L18.1785 42Z" fill="#7668E7"/>
</svg>