<svg xmlns="http://www.w3.org/2000/svg" width="25" height="24" viewBox="0 0 25 24" fill="none">
    <path d="M12.9865 19.3364L18.5592 22.855C19.2779 23.3058 20.1624 22.6351 19.9523 21.8104L18.338 15.499C18.2944 15.324 18.3013 15.1404 18.358 14.9692C18.4148 14.798 18.519 14.6462 18.6587 14.5314L23.6564 10.3861C24.3087 9.84729 23.977 8.75874 23.1256 8.70376L16.6021 8.28593C16.4241 8.27563 16.253 8.21399 16.1096 8.10855C15.9663 8.0031 15.8569 7.85842 15.7949 7.69217L13.3624 1.60066C13.298 1.42462 13.1807 1.27255 13.0265 1.1651C12.8722 1.05764 12.6884 1 12.5 1C12.3116 1 12.1278 1.05764 11.9735 1.1651C11.8193 1.27255 11.702 1.42462 11.6376 1.60066L9.20505 7.69217C9.14306 7.85842 9.03371 8.0031 8.89037 8.10855C8.74702 8.21399 8.5759 8.27563 8.3979 8.28593L1.87435 8.70376C1.02297 8.75874 0.691267 9.84729 1.34362 10.3861L6.34133 14.5314C6.48101 14.6462 6.58522 14.798 6.64195 14.9692C6.69869 15.1404 6.70562 15.324 6.66197 15.499L5.1693 21.3486C4.91499 22.3382 5.97645 23.1409 6.82783 22.6021L12.0135 19.3364C12.1589 19.2445 12.3277 19.1956 12.5 19.1956C12.6723 19.1956 12.8411 19.2445 12.9865 19.3364V19.3364Z" stroke="black" stroke-opacity="0.1" stroke-width="1.6" stroke-linecap="round" stroke-linejoin="round"/>
</svg>