<svg width="24" height="24" viewBox="0 0 24 24" fill="none" xmlns="http://www.w3.org/2000/svg">
<path d="M2.40039 5.224L5.30679 10.419V13.5878L2.40379 18.7726L2.40039 5.224Z" fill="#5B57A2"/>
<path d="M13.5596 8.52871L16.283 6.85951L21.8566 6.85431L13.5596 11.9371V8.52871Z" fill="#D90751"/>
<path d="M13.5443 5.19339L13.5597 12.0714L10.6465 10.2814V0L13.5445 5.19339H13.5443Z" fill="#FAB718"/>
<path d="M21.8567 6.85419L16.2829 6.85939L13.5443 5.19339L10.6465 0L21.8565 6.85419H21.8567Z" fill="#ED6F26"/>
<path d="M13.5597 18.8014V15.4644L10.6465 13.7084L10.6481 24L13.5597 18.8014Z" fill="#63B22F"/>
<path d="M16.2764 17.1474L5.30659 10.419L2.40039 5.224L21.845 17.1406L16.2762 17.1474H16.2764Z" fill="#1487C9"/>
<path d="M10.6484 24L13.5596 18.8014L16.2762 17.1474L21.8448 17.1406L10.6484 24Z" fill="#017F36"/>
<path d="M2.40332 18.7725L10.6699 13.7085L7.89072 12.0033L5.30632 13.5877L2.40332 18.7725Z" fill="#984995"/>
</svg>
