<svg width="32" height="32" viewBox="0 0 32 32" fill="none" xmlns="http://www.w3.org/2000/svg">
<path d="M14.2685 25.2156C14.2685 26.1664 13.4977 26.9372 12.5469 26.9372C11.596 26.9372 10.8252 26.1664 10.8252 25.2156C10.8252 24.2647 11.596 23.4939 12.5469 23.4939C13.4977 23.4939 14.2685 24.2647 14.2685 25.2156Z" fill="#212121" stroke="#212121" stroke-width="0.125"/>
<path d="M24.9824 25.2156C24.9824 26.1664 24.2116 26.9372 23.2607 26.9372C22.3099 26.9372 21.5391 26.1664 21.5391 25.2156C21.5391 24.2647 22.3099 23.4939 23.2607 23.4939C24.2116 23.4939 24.9824 24.2647 24.9824 25.2156Z" fill="#212121" stroke="#212121" stroke-width="0.125"/>
<path d="M8.52844 9.38912H27.0037L24.285 19.528C24.188 19.8959 23.9802 20.2198 23.6937 20.4497C23.4072 20.6797 23.0577 20.803 22.699 20.8008H12.8332C12.4745 20.803 12.125 20.6797 11.8385 20.4497C11.5519 20.2198 11.3442 19.8959 11.2472 19.528L7.5192 5.63642C7.46993 5.45291 7.36587 5.2915 7.22278 5.17666C7.07969 5.06182 6.90537 4.9998 6.72622 5H4.99609" stroke="#212121" stroke-width="2" stroke-linecap="round" stroke-linejoin="round"/>
</svg>
