<svg width="104" height="30" viewBox="0 0 104 30" fill="none" xmlns="http://www.w3.org/2000/svg">
<path d="M81.2174 10.2748H73.8176C73.3752 10.2748 73.0132 10.6367 73.0132 11.0791C73.0132 11.5214 73.3752 11.8834 73.8176 11.8834H76.7132V18.4785C76.7132 18.9209 77.0751 19.2828 77.5175 19.2828C77.9599 19.2828 78.3218 18.9209 78.3218 18.4785V11.8834H81.2174C81.6598 11.8834 82.0217 11.5214 82.0217 11.0791C82.0217 10.6367 81.6598 10.2748 81.2174 10.2748Z" fill="#1A1A1A"/>
<path d="M102.311 15.382C103.296 15 104 14.0348 104 12.9088C104 11.441 102.814 10.2547 101.346 10.2547H97.0225C96.5801 10.2547 96.2181 10.6166 96.2181 11.059V18.4584C96.2181 18.9008 96.5801 19.2627 97.0225 19.2627C97.4648 19.2627 97.8268 18.9008 97.8268 18.4584V15.563H100.642L102.17 18.8003C102.311 19.0818 102.592 19.2627 102.894 19.2627C103.015 19.2627 103.135 19.2426 103.236 19.1823C103.638 19.0013 103.799 18.5188 103.618 18.1166L102.311 15.382ZM101.326 13.9745H97.8067V11.8834H101.326C101.909 11.8834 102.371 12.3458 102.371 12.929C102.391 13.492 101.909 13.9745 101.326 13.9745Z" fill="#1A1A1A"/>
<path d="M88.396 10.2748C85.9227 10.2748 83.8918 12.2855 83.8918 14.7788C83.8918 17.252 85.9026 19.2828 88.396 19.2828C90.8894 19.2828 92.9003 17.2721 92.9003 14.7788C92.9003 12.2855 90.8693 10.2748 88.396 10.2748ZM88.396 17.6743C86.8075 17.6743 85.5004 16.3673 85.5004 14.7788C85.5004 13.1903 86.8075 11.8834 88.396 11.8834C89.9846 11.8834 91.2916 13.1903 91.2916 14.7788C91.2916 16.3673 89.9846 17.6743 88.396 17.6743Z" fill="#1A1A1A"/>
<path d="M55.6398 10.2748C53.1664 10.2748 51.1355 12.2855 51.1355 14.7788C51.1355 17.252 53.1463 19.2828 55.6398 19.2828C58.1332 19.2828 60.144 17.2721 60.144 14.7788C60.144 12.2855 58.1332 10.2748 55.6398 10.2748ZM55.6398 17.6743C54.0512 17.6743 52.7442 16.3673 52.7442 14.7788C52.7442 13.1903 54.0512 11.8834 55.6398 11.8834C57.2283 11.8834 58.5353 13.1903 58.5353 14.7788C58.5353 16.3673 57.2283 17.6743 55.6398 17.6743Z" fill="#1A1A1A"/>
<path d="M70.6606 16.2466C70.3187 16.0858 69.9166 16.2064 69.6954 16.508C69.1525 17.2319 68.2878 17.6944 67.3226 17.6743C65.8145 17.6541 64.5477 16.4276 64.4874 14.9196C64.4069 13.2507 65.7341 11.8834 67.383 11.8834C68.328 11.8834 69.1726 12.3458 69.7155 13.0496C69.9367 13.3512 70.3389 13.4517 70.6807 13.311C71.1432 13.1099 71.3041 12.5067 71.0024 12.0844C70.0775 10.8579 68.5492 10.1139 66.8601 10.2949C64.8091 10.5362 63.1401 12.185 62.9189 14.256C62.6173 16.9705 64.7488 19.2828 67.4031 19.2828C68.8911 19.2828 70.1981 18.559 71.0225 17.4531C71.284 17.0509 71.1231 16.4477 70.6606 16.2466Z" fill="#1A1A1A"/>
<path d="M43.9167 10.2748H41.745C41.3026 10.2748 40.9406 10.6367 40.9406 11.0791V18.4785C40.9406 18.8606 41.2222 19.1823 41.5841 19.2627C41.6444 19.2828 41.6846 19.2828 41.745 19.2828H43.9167C46.4101 19.2828 48.4209 17.2721 48.4209 14.7788C48.4209 12.2855 46.39 10.2748 43.9167 10.2748ZM43.9167 17.6743H42.5493V11.8834H43.9167C45.5052 11.8834 46.8122 13.1903 46.8122 14.7788C46.8122 16.3673 45.5052 17.6743 43.9167 17.6743Z" fill="#1A1A1A"/>
<path d="M14.9203 0H6.47484C2.89558 0 0 2.89544 0 6.47453V23.5255C0 27.1046 2.89558 30 6.47484 30H14.9203C25.9999 30 31.9519 23.2842 31.9519 15C31.9519 6.71582 25.9999 0 14.9203 0ZM15.2219 18.5389H14.679V11.4611H15.2219C17.1724 11.4611 18.761 13.0496 18.761 15C18.761 16.9504 17.1724 18.5389 15.2219 18.5389Z" fill="url(#paint0_linear_189_1386)"/>
<path d="M14.9203 0H6.47484C2.89558 0 0 2.89544 0 6.47453V15.3619C0 13.13 1.30703 11.4812 3.86077 11.4812H15.2219C17.1724 11.4812 18.761 13.0697 18.761 15.0201C18.761 16.9705 17.1724 18.559 15.2219 18.559H14.679V25.9786C14.679 28.2909 17.0115 30.0603 19.2838 29.6381C27.5482 28.1099 31.9519 22.1381 31.9519 15.0201C31.9519 6.71582 25.9999 0 14.9203 0Z" fill="url(#paint1_linear_189_1386)"/>
<defs>
<linearGradient id="paint0_linear_189_1386" x1="-0.00396132" y1="15.0061" x2="31.9525" y2="15.0061" gradientUnits="userSpaceOnUse">
<stop stop-color="#A13BEB"/>
<stop offset="1" stop-color="#2099F8"/>
</linearGradient>
<linearGradient id="paint1_linear_189_1386" x1="-0.00398143" y1="14.8451" x2="31.9524" y2="14.8451" gradientUnits="userSpaceOnUse">
<stop offset="0.000500801" stop-color="#3BF09B"/>
<stop offset="1" stop-color="#3BF09B" stop-opacity="0"/>
</linearGradient>
</defs>
</svg>
