<svg width="16" height="16" viewBox="0 0 16 16" fill="none" xmlns="http://www.w3.org/2000/svg">
<path d="M14.9997 11.4817V13.5893C15.0005 13.7849 14.9604 13.9786 14.882 14.1578C14.8036 14.3371 14.6887 14.498 14.5445 14.6303C14.4003 14.7626 14.2301 14.8633 14.0448 14.9259C13.8594 14.9886 13.663 15.0119 13.4682 14.9943C11.3064 14.7594 9.22985 14.0207 7.4054 12.8376C5.70799 11.7589 4.26888 10.3198 3.19028 8.62243C2.003 6.78969 1.26413 4.70306 1.03353 2.53156C1.01598 2.33729 1.03907 2.1415 1.10133 1.95664C1.16359 1.77178 1.26366 1.60191 1.39517 1.45785C1.52668 1.31378 1.68674 1.19868 1.86517 1.11986C2.0436 1.04105 2.23649 1.00025 2.43155 1.00007H4.53912C4.88006 0.996713 5.21058 1.11744 5.46909 1.33976C5.72759 1.56208 5.89644 1.87081 5.94416 2.20841C6.03312 2.88287 6.19809 3.54511 6.43593 4.18249C6.53044 4.43394 6.5509 4.70721 6.49487 4.96993C6.43884 5.23265 6.30867 5.4738 6.11979 5.66481L5.22759 6.55701C6.22767 8.31581 7.68392 9.77206 9.44272 10.7721L10.3349 9.87994C10.5259 9.69106 10.7671 9.56089 11.0298 9.50486C11.2925 9.44883 11.5658 9.46929 11.8172 9.56381C12.4546 9.80164 13.1169 9.96662 13.7913 10.0556C14.1326 10.1037 14.4443 10.2756 14.667 10.5386C14.8898 10.8015 15.0082 11.1372 14.9997 11.4817Z" stroke="#212121" stroke-linecap="round" stroke-linejoin="round"/>
</svg>
