<svg width="44" height="22" viewBox="0 0 44 22" fill="none" xmlns="http://www.w3.org/2000/svg">
<path fill-rule="evenodd" clip-rule="evenodd" d="M33.3201 21.5H10.6797C7.91804 21.5 5.27055 20.3937 3.31864 18.4245C2.35396 17.4541 1.58773 16.2983 1.06434 15.0238C0.54094 13.7494 0.270788 12.3817 0.269531 11C0.270788 9.61833 0.54094 8.25065 1.06434 6.9762C1.58773 5.70175 2.35396 4.54588 3.31864 3.57555C5.27977 1.60257 7.9247 0.497485 10.6797 0.500004H33.3201C36.0818 0.500004 38.7293 1.60632 40.6812 3.57555C41.6459 4.54588 42.4121 5.70175 42.9355 6.9762C43.4589 8.25065 43.729 9.61833 43.7303 11C43.729 12.3817 43.4589 13.7494 42.9355 15.0238C42.4121 16.2983 41.6459 17.4541 40.6812 18.4245C38.7201 20.3974 36.0751 21.5025 33.3201 21.5ZM8.47225 11.1126V9.4546L10.6507 10.832L15.179 7.472C15.4514 7.82614 15.6817 8.21178 15.8661 8.61937L10.6507 12.4901L8.47225 11.1126ZM15.0479 10.873V10.9924C15.0489 11.9869 14.7203 12.9526 14.1155 13.7329C13.5072 14.5177 12.6595 15.0733 11.7067 15.3117C10.7514 15.5517 9.74493 15.4621 8.84485 15.0568C7.94872 14.6541 7.21052 13.9572 6.74783 13.0771C6.28763 12.2008 6.13189 11.1915 6.30596 10.2135C6.48129 9.23402 6.97496 8.3433 7.7074 7.68487C8.4451 7.02257 9.37744 6.62851 10.3583 6.56443C11.3392 6.50034 12.3133 6.76985 13.1278 7.33073L14.2447 6.5041C13.2313 5.67917 11.9746 5.22684 10.6779 5.22023C9.38178 5.2125 8.12095 5.65033 7.09889 6.46305C6.08215 7.27084 5.36643 8.40843 5.07021 9.6875C4.77612 10.9634 4.92088 12.3036 5.48025 13.4837C6.04299 14.6689 6.98415 15.6238 8.14928 16.1918C9.31969 16.7632 10.6446 16.9165 11.9108 16.6271C13.174 16.3398 14.3047 15.6252 15.1191 14.5996C15.6289 13.9573 15.9966 13.2102 16.197 12.4095C16.3973 11.6088 16.4256 10.7734 16.2799 9.96051L15.0479 10.873ZM22.057 14.4688V12.1149H23.2113C25.4048 12.1149 26.5815 11.231 26.5815 9.47082C26.5815 7.766 25.577 6.91264 23.2113 6.91264H20.7192V14.4688H22.057ZM22.057 10.873V8.1545L23.3358 8.15355C24.639 8.15355 25.1969 8.5096 25.1969 9.43741C25.1969 10.4636 24.5547 10.873 23.3134 10.873H22.057ZM27.2902 9.45078C27.6413 9.18351 28.2835 8.96396 29.2056 8.96396C30.7681 8.96396 31.5386 9.50519 31.5386 10.9074V14.4698H30.3618V13.4981C30.1053 14.1233 29.4528 14.5557 28.5952 14.5557C27.5149 14.5557 26.8736 13.94 26.8736 12.8824C26.8736 11.651 27.762 11.3064 29.0774 11.3064H30.286V11.0697C30.286 10.3032 29.9237 10.0655 29.2056 10.0655C28.2208 10.0655 27.6544 10.454 27.2911 11.0258L27.2893 9.45078H27.2902ZM30.285 12.5645V12.1273H29.2271C28.4876 12.1273 28.1346 12.2686 28.1346 12.7526C28.1346 13.163 28.4342 13.4217 28.9903 13.4217C29.8357 13.4217 30.2317 12.9358 30.285 12.5645ZM33.5551 9.07182H32.1583L34.4107 14.4975C34.2076 15.2239 33.9183 15.4835 33.5345 15.4835C33.2946 15.4795 33.0651 15.383 32.8923 15.2134V16.3903C33.0495 16.5297 33.4156 16.6271 33.7479 16.6271C34.4547 16.6271 34.935 16.3359 35.4068 15.0416L37.546 9.07182H36.2194L35.0211 12.7736L33.5551 9.07182Z" fill="#21A038"/>
</svg>
