<svg width="27" height="26" viewBox="0 0 27 26" fill="none" xmlns="http://www.w3.org/2000/svg">
<path fill-rule="evenodd" clip-rule="evenodd" d="M12.0693 3.13968C12.447 3.32856 12.6001 3.78789 12.4113 4.16563C12.1746 4.639 11.925 5.09064 11.6653 5.52269C11.4478 5.88466 10.9779 6.00172 10.616 5.78414C10.254 5.56656 10.1369 5.09674 10.3545 4.73477C10.5946 4.33539 10.825 3.91839 11.0433 3.48165C11.2322 3.10391 11.6915 2.9508 12.0693 3.13968ZM9.77657 6.96848C10.1044 7.23476 10.1543 7.71636 9.888 8.04418C9.21552 8.87209 8.52089 9.61782 7.84033 10.3062C7.5434 10.6065 7.05923 10.6092 6.7589 10.3123C6.45857 10.0154 6.45582 9.5312 6.75275 9.23088C7.41132 8.56478 8.06956 7.85715 8.70088 7.07992C8.96715 6.7521 9.44875 6.70221 9.77657 6.96848ZM5.71206 11.3154C6.00667 11.618 6.00019 12.1021 5.69758 12.3967C4.94126 13.1331 4.2745 13.8125 3.73114 14.4978C3.46876 14.8288 2.98778 14.8844 2.65684 14.622C2.3259 14.3596 2.27032 13.8786 2.5327 13.5477C3.14119 12.7802 3.86828 12.0432 4.63071 11.3009C4.93332 11.0063 5.41745 11.0128 5.71206 11.3154ZM1.92996 15.8881C2.33725 15.9999 2.57685 16.4206 2.46513 16.8279C2.35555 17.2274 2.296 17.6473 2.296 18.098C2.296 18.487 2.34383 18.8447 2.42976 19.1744C2.53627 19.5831 2.29131 20.0007 1.88263 20.1072C1.47395 20.2138 1.05631 19.9688 0.949795 19.5601C0.83026 19.1015 0.766602 18.6141 0.766602 18.098C0.766601 17.5093 0.844813 16.9534 0.990216 16.4233C1.10194 16.016 1.52268 15.7764 1.92996 15.8881ZM2.41951 21.0145C2.72426 20.7221 3.20833 20.7321 3.50072 21.0369C4.01379 21.5716 4.65925 22.0158 5.36632 22.3763C5.74257 22.5682 5.89208 23.0287 5.70025 23.4049C5.50842 23.7812 5.0479 23.9307 4.67165 23.7389C3.8537 23.3219 3.05698 22.7835 2.39714 22.0957C2.10475 21.791 2.11476 21.3069 2.41951 21.0145ZM6.67549 23.7612C6.78205 23.3525 7.19973 23.1076 7.6084 23.2142C8.02662 23.3233 8.42553 23.404 8.78588 23.46C9.2032 23.5248 9.48896 23.9157 9.42414 24.333C9.35931 24.7503 8.96845 25.0361 8.55112 24.9713C8.1406 24.9075 7.69122 24.8163 7.22249 24.6941C6.81382 24.5876 6.56892 24.1699 6.67549 23.7612Z" fill="#41404D"/>
<path fill-rule="evenodd" clip-rule="evenodd" d="M15.5591 0.0105239C15.9756 0.0799548 16.2571 0.473949 16.1876 0.890535C16.026 1.8606 15.6896 3.44488 15.2013 5.07798C14.7175 6.69598 14.0641 8.43245 13.2461 9.65951C12.7392 10.4198 12.0861 11.163 11.4177 11.876C11.1151 12.1987 10.8198 12.5048 10.5289 12.8063C10.1503 13.1987 9.77908 13.5834 9.40886 13.9873C8.77202 14.6821 8.22467 15.3435 7.83793 15.9837C7.45068 16.6246 7.25694 17.1915 7.25694 17.7059C7.25694 18.6374 7.92306 19.2713 9.11511 19.8389C9.62842 20.0834 10.1756 20.2851 10.719 20.4855C10.7884 20.5111 10.8577 20.5366 10.9269 20.5623C11.5009 20.7748 12.1215 21.0102 12.5634 21.3048C13.3581 21.8346 13.7247 22.6811 13.8871 23.41C14.0511 24.1456 14.0347 24.8757 13.9667 25.3449C13.9061 25.7629 13.5182 26.0526 13.1002 25.992C12.6823 25.9314 12.3926 25.5435 12.4531 25.1255C12.4988 24.8104 12.5119 24.2699 12.3944 23.7427C12.2754 23.209 12.0498 22.8005 11.7151 22.5774C11.4511 22.4014 11.0129 22.225 10.3957 21.9964C10.3291 21.9718 10.2609 21.9467 10.1913 21.921C9.65505 21.7235 9.03861 21.4965 8.45757 21.2198C7.17905 20.611 5.72754 19.5978 5.72754 17.7059C5.72754 16.8084 6.0632 15.9636 6.52889 15.1928C6.99508 14.4212 7.6242 13.6709 8.28146 12.9539C8.65081 12.5509 9.0584 12.128 9.45769 11.7137C9.74962 11.4108 10.0371 11.1125 10.302 10.83C10.9571 10.1311 11.5393 9.46262 11.9736 8.81116C12.6614 7.77942 13.263 6.22179 13.736 4.63983C14.2045 3.07295 14.527 1.55138 14.679 0.639103C14.7485 0.222517 15.1425 -0.058907 15.5591 0.0105239Z" fill="#41404D"/>
<path fill-rule="evenodd" clip-rule="evenodd" d="M24.965 16.8446C25.3549 16.6825 25.8025 16.8671 25.9647 17.257C26.6471 18.8976 26.7163 20.9675 25.0058 22.2961C23.5295 23.4429 20.9165 23.3858 19.1912 21.6075C18.9478 21.3565 18.7352 21.0857 18.5464 20.8354C18.4872 20.757 18.4314 20.6821 18.3776 20.6097C18.251 20.4398 18.135 20.2839 18.0101 20.1297C17.6606 19.6979 17.3609 19.4357 17.0038 19.3206C16.3574 19.1121 15.5421 19.1283 14.6659 19.9399C14.356 20.2269 13.8722 20.2084 13.5852 19.8986C13.2982 19.5887 13.3167 19.1049 13.6266 18.8179C14.9416 17.5999 16.345 17.5012 17.4732 17.865C18.2609 18.119 18.7932 18.6663 19.1989 19.1675C19.3444 19.3472 19.4892 19.5417 19.6231 19.7214C19.6728 19.7883 19.7211 19.8531 19.7673 19.9143C19.9472 20.1527 20.1136 20.3619 20.2889 20.5425C21.5048 21.7958 23.2444 21.7277 24.0677 21.0883C24.9935 20.3691 25.1084 19.1808 24.5526 17.8444C24.3904 17.4544 24.575 17.0068 24.965 16.8446Z" fill="#41404D"/>
</svg>
