<svg xmlns="http://www.w3.org/2000/svg" width="18" height="18" viewBox="0 0 18 18" fill="none">
  <path d="M15.3705 3.34688L11.2502 15.2508C11.0744 15.7641 10.3432 15.75 10.1815 15.2297L8.52209 9.84375C8.49705 9.75571 8.44952 9.67569 8.38418 9.61159C8.31884 9.54748 8.23794 9.50148 8.14943 9.47813L2.77052 7.81875C2.25021 7.65703 2.23615 6.92578 2.74943 6.75L14.6533 2.62969C14.7534 2.59454 14.8613 2.58837 14.9646 2.61189C15.068 2.63541 15.1626 2.68766 15.2376 2.76262C15.3126 2.83758 15.3648 2.9322 15.3883 3.03557C15.4118 3.13895 15.4057 3.24686 15.3705 3.34688V3.34688Z" stroke="#788D98" stroke-width="1.2" stroke-linecap="round" stroke-linejoin="round"/>
</svg>