<svg width="32" height="32" viewBox="0 0 32 32" fill="none" xmlns="http://www.w3.org/2000/svg">
<path d="M15.9986 16.6157C17.3581 16.6157 18.4602 15.5136 18.4602 14.1542C18.4602 12.7947 17.3581 11.6926 15.9986 11.6926C14.6392 11.6926 13.5371 12.7947 13.5371 14.1542C13.5371 15.5136 14.6392 16.6157 15.9986 16.6157Z" stroke="#212121" stroke-linecap="round" stroke-linejoin="round"/>
<path d="M22.1539 14.1538C22.1539 19.6923 16 24 16 24C16 24 9.84619 19.6923 9.84619 14.1538C9.84619 12.5217 10.4945 10.9565 11.6486 9.80242C12.8027 8.64835 14.3679 8 16 8C17.6321 8 19.1974 8.64835 20.3515 9.80242C21.5055 10.9565 22.1539 12.5217 22.1539 14.1538V14.1538Z" stroke="#212121" stroke-linecap="round" stroke-linejoin="round"/>
</svg>
