<svg width="102" height="42" viewBox="0 0 102 42" fill="none" xmlns="http://www.w3.org/2000/svg">
<path d="M35.0118 18.2168L34.1122 17.7389L38.9756 9.7269C41.562 5.45381 38.4977 0 33.4937 0H12.325C-0.466156 0 -4.73924 17.0361 6.44951 23.1084L1.08003 31.9919C-1.56254 36.3775 1.58605 41.9719 6.70252 41.9719H29.1363C42.2648 41.9719 46.6503 24.3735 35.0118 18.2168Z" fill="url(#paint0_linear_882_21094)"/>
<path d="M13.4214 8.79917L34.1403 17.7389L39.0037 9.7269C41.5901 5.45381 38.5258 0 33.5218 0H15.6423C10.7507 0 9.12018 6.52207 13.4214 8.79917Z" fill="url(#paint1_linear_882_21094)"/>
<path d="M25.3973 31.1485L6.44951 23.1365L1.08003 32.02C-1.56254 36.4056 1.58605 42 6.70252 42H22.7266C28.6865 41.9718 30.7105 33.9598 25.3973 31.1485Z" fill="url(#paint2_linear_882_21094)"/>
<path d="M58.4853 25.1886H53.7343C52.413 25.1886 51.1761 24.4858 50.5295 23.3332C50.2202 22.7991 50.3889 22.0963 50.9512 21.787C51.4853 21.4778 52.1881 21.6465 52.4973 22.2087C52.7504 22.6585 53.2564 22.9396 53.7624 22.9396H58.5134C59.3287 22.9396 59.9753 22.2931 59.9753 21.4778C59.9753 20.6625 59.3287 20.0159 58.5134 20.0159H53.9311C51.8789 20.0159 50.2202 18.3573 50.2202 16.3051C50.2202 14.2529 51.8789 12.5942 53.9311 12.5942H58.5134C59.8347 12.5942 61.0716 13.2971 61.7182 14.4497C62.0275 14.9838 61.8588 15.6866 61.2965 15.9959C60.7624 16.3051 60.0596 16.1364 59.7504 15.5742C59.4974 15.1244 58.9913 14.8432 58.4853 14.8432H53.903C53.0877 14.8432 52.4411 15.4898 52.4411 16.3051C52.4411 17.1204 53.0877 17.7669 53.903 17.7669H58.4853C60.5375 17.7669 62.1961 19.4256 62.1961 21.4778C62.1961 23.53 60.5375 25.1886 58.4853 25.1886Z" fill="#1A1A1A"/>
<path d="M81.4813 25.1886C80.8628 25.1886 80.3568 24.6826 80.3568 24.0641V13.7187C80.3568 13.1003 80.8628 12.5942 81.4813 12.5942C82.0998 12.5942 82.6058 13.1003 82.6058 13.7187V24.0641C82.6058 24.6826 82.0998 25.1886 81.4813 25.1886Z" fill="#1A1A1A"/>
<path d="M86.654 14.8713H76.3086C75.6901 14.8713 75.1841 14.3653 75.1841 13.7468C75.1841 13.1283 75.6901 12.6223 76.3086 12.6223H86.654C87.2724 12.6223 87.7785 13.1283 87.7785 13.7468C87.7785 14.3653 87.2724 14.8713 86.654 14.8713Z" fill="#1A1A1A"/>
<path d="M69.3648 25.1886C68.7463 25.1886 68.2403 24.6826 68.2403 24.0641V13.7187C68.2403 13.1003 68.7463 12.5942 69.3648 12.5942C69.9833 12.5942 70.4893 13.1003 70.4893 13.7187V24.0641C70.4893 24.6826 70.0114 25.1886 69.3648 25.1886Z" fill="#1A1A1A"/>
<path d="M100.795 25.1886H93.4572C92.8387 25.1886 92.3327 24.6826 92.3327 24.0641V13.7187C92.3327 13.1003 92.8387 12.5942 93.4572 12.5942H100.795C101.413 12.5942 101.919 13.1003 101.919 13.7187C101.919 14.3372 101.413 14.8432 100.795 14.8432H94.5817V22.9396H100.795C101.413 22.9396 101.919 23.4457 101.919 24.0641C101.919 24.6826 101.413 25.1886 100.795 25.1886Z" fill="#1A1A1A"/>
<path d="M100.485 20.0158H93.7945C93.1761 20.0158 92.67 19.5098 92.67 18.8913C92.67 18.2729 93.1761 17.7668 93.7945 17.7668H100.485C101.104 17.7668 101.61 18.2729 101.61 18.8913C101.61 19.5379 101.104 20.0158 100.485 20.0158Z" fill="#1A1A1A"/>
<defs>
<linearGradient id="paint0_linear_882_21094" x1="10.4491" y1="44.2943" x2="30.9405" y2="-1.74731" gradientUnits="userSpaceOnUse">
<stop stop-color="#2AF399"/>
<stop offset="1" stop-color="#0D98FC"/>
</linearGradient>
<linearGradient id="paint1_linear_882_21094" x1="25.4288" y1="17.7522" x2="25.4288" y2="0.00843337" gradientUnits="userSpaceOnUse">
<stop stop-color="#A32EF0"/>
<stop offset="1" stop-color="#A32EF0" stop-opacity="0"/>
</linearGradient>
<linearGradient id="paint2_linear_882_21094" x1="14.2823" y1="41.9845" x2="14.2823" y2="23.1252" gradientUnits="userSpaceOnUse">
<stop stop-color="#0D98FC" stop-opacity="0"/>
<stop offset="0.9985" stop-color="#0D98FC"/>
</linearGradient>
</defs>
</svg>
