<svg width="103" height="42" viewBox="0 0 103 42" fill="none" xmlns="http://www.w3.org/2000/svg">
<path d="M58.6089 25.2153H53.8456C52.5225 25.2153 51.3128 24.4971 50.6323 23.3629C50.3299 22.8337 50.5189 22.1532 51.0481 21.813C51.5774 21.5105 52.2579 21.6996 52.5981 22.2288C52.8627 22.6825 53.3542 22.9471 53.8834 22.9471H58.6467C59.4406 22.9471 60.1211 22.3044 60.1211 21.4728C60.1211 20.6411 59.4784 19.9984 58.6467 19.9984H54.0725C52.031 19.9984 50.3677 18.335 50.3677 16.2936C50.3677 14.2522 52.031 12.5889 54.0725 12.5889H58.6467C59.9698 12.5889 61.1796 13.3071 61.86 14.4412C62.1625 14.9705 61.9734 15.651 61.4442 15.9912C60.9149 16.2936 60.2345 16.1046 59.8942 15.5753C59.6296 15.1217 59.1382 14.8571 58.6089 14.8571H54.0346C53.2408 14.8571 52.5603 15.4997 52.5603 16.3314C52.5603 17.1253 53.203 17.8058 54.0346 17.8058H58.6089C60.6503 17.8058 62.3137 19.4691 62.3137 21.5106C62.3137 23.552 60.6503 25.2153 58.6089 25.2153Z" fill="white"/>
<path d="M81.5936 25.2153C80.9887 25.2153 80.4595 24.7238 80.4595 24.0812V13.723C80.4595 13.1181 80.9509 12.5889 81.5936 12.5889C82.1984 12.5889 82.7277 13.0803 82.7277 13.723V24.0812C82.7277 24.7238 82.2363 25.2153 81.5936 25.2153Z" fill="white"/>
<path d="M86.7726 14.8571H76.4144C75.8095 14.8571 75.2803 14.3656 75.2803 13.723C75.2803 13.1181 75.7717 12.5889 76.4144 12.5889H86.7726C87.3775 12.5889 87.9067 13.0803 87.9067 13.723C87.9067 14.3656 87.4153 14.8571 86.7726 14.8571Z" fill="white"/>
<path d="M69.4964 25.2153C68.8916 25.2153 68.3623 24.7238 68.3623 24.0812V13.723C68.3623 13.1181 68.8538 12.5889 69.4964 12.5889C70.1391 12.5889 70.6305 13.0803 70.6305 13.723V24.0812C70.6305 24.7238 70.1013 25.2153 69.4964 25.2153Z" fill="white"/>
<path d="M100.949 25.2153H93.6151C93.0102 25.2153 92.481 24.7238 92.481 24.0812V13.723C92.481 13.1181 92.9724 12.5889 93.6151 12.5889H100.949C101.554 12.5889 102.083 13.0803 102.083 13.723C102.083 14.3278 101.592 14.8571 100.949 14.8571H94.7492V22.9471H100.949C101.554 22.9471 102.083 23.4385 102.083 24.0812C102.083 24.7238 101.554 25.2153 100.949 25.2153Z" fill="white"/>
<path d="M100.609 20.0358H93.9178C93.3129 20.0358 92.7837 19.5444 92.7837 18.9017C92.7837 18.2968 93.2751 17.7676 93.9178 17.7676H100.609C101.214 17.7676 101.743 18.259 101.743 18.9017C101.743 19.5444 101.252 20.0358 100.609 20.0358Z" fill="white"/>
<path d="M35.0938 18.2214L34.1865 17.7678L39.0254 9.7534C41.6339 5.48157 38.534 0 33.5439 0H12.336C-0.441728 0 -4.75136 17.0495 6.43856 23.1359L1.07043 32.0198C-1.57584 36.405 1.56188 42 6.70319 42H29.1586C42.3522 42 46.7374 24.4212 35.0938 18.2214Z" fill="url(#paint0_linear_2841_39931)"/>
<path d="M13.5076 8.8083L34.2241 17.7678L39.063 9.7534C41.6715 5.48157 38.5716 0 33.5815 0H15.7003C10.8236 0 9.19801 6.54007 13.5076 8.8083Z" fill="url(#paint1_linear_2841_39931)"/>
<path d="M25.4539 31.1502L6.47635 23.1357L1.10821 32.0196C-1.53806 36.4049 1.59967 41.9998 6.74098 41.9998H22.7698C28.7806 41.9998 30.7842 33.9855 25.4539 31.1502Z" fill="url(#paint2_linear_2841_39931)"/>
<defs>
<linearGradient id="paint0_linear_2841_39931" x1="10.5095" y1="44.3281" x2="31.019" y2="-1.75406" gradientUnits="userSpaceOnUse">
<stop stop-color="#A13BEB"/>
<stop offset="1" stop-color="#2099F8"/>
</linearGradient>
<linearGradient id="paint1_linear_2841_39931" x1="25.5018" y1="17.7623" x2="25.5018" y2="0.00321369" gradientUnits="userSpaceOnUse">
<stop offset="0.000500801" stop-color="#3BF09B"/>
<stop offset="1" stop-color="#3BF09B" stop-opacity="0"/>
</linearGradient>
<linearGradient id="paint2_linear_2841_39931" x1="14.3461" y1="42.0161" x2="14.3461" y2="23.1402" gradientUnits="userSpaceOnUse">
<stop stop-color="#2099F8" stop-opacity="0"/>
<stop offset="0.9985" stop-color="#2099F8"/>
</linearGradient>
</defs>
</svg>
