<svg width="20" height="20" viewBox="0 0 20 20" fill="none" xmlns="http://www.w3.org/2000/svg">
<path d="M3.024 15.851C3.249 15.1497 4.374 13.2796 6.174 13.2796C8.424 13.2796 7.974 14.3705 9.999 14.3705C12.024 14.3705 11.574 13.2796 13.824 13.2796C15.624 13.2796 16.749 15.1497 16.974 15.851M19 10C19 14.9706 14.9706 19 10 19C5.02944 19 1 14.9706 1 10C1 5.02944 5.02944 1 10 1C14.9706 1 19 5.02944 19 10ZM14.052 7.62143C14.052 9.85818 12.2388 11.6714 10.002 11.6714C7.76526 11.6714 5.95201 9.85818 5.95201 7.62143C5.95201 5.38468 7.76526 3.57143 10.002 3.57143C12.2388 3.57143 14.052 5.38468 14.052 7.62143Z" stroke="#212121" stroke-width="1.2"/>
</svg>
