<svg width="16" height="13" viewBox="0 0 16 13" fill="none" xmlns="http://www.w3.org/2000/svg">
<path fill-rule="evenodd" clip-rule="evenodd" d="M1.03881 5.35725C5.09516 3.60105 7.80003 2.44326 9.15342 1.88387C13.0176 0.286704 13.8206 0.00925909 14.3439 9.76811e-05C14.459 -0.00191727 14.7164 0.0264303 14.8831 0.160857C15.0239 0.274364 15.0626 0.427696 15.0811 0.535314C15.0997 0.642931 15.1227 0.888086 15.1044 1.07964C14.895 3.26604 13.9889 8.57186 13.5279 11.0207C13.3329 12.0569 12.9488 12.4043 12.577 12.4383C11.769 12.5122 11.1554 11.9076 10.3728 11.3978C9.14812 10.6001 8.45627 10.1035 7.26753 9.32504C5.89373 8.42541 6.78431 7.93096 7.56723 7.12288C7.77212 6.91141 11.3324 3.69341 11.4013 3.40149C11.4099 3.36498 11.4179 3.22889 11.3365 3.15703C11.2552 3.08517 11.1351 3.10974 11.0484 3.12929C10.9256 3.15699 8.9692 4.44198 5.17923 6.98427C4.62391 7.3632 4.12092 7.54783 3.67026 7.53815C3.17344 7.52749 2.21776 7.25901 1.50732 7.02952C0.635921 6.74804 -0.0566462 6.59922 0.00366081 6.12118C0.0350724 5.87219 0.380122 5.61755 1.03881 5.35725Z" fill="#212121"/>
</svg>
