<svg width="18" height="18" viewBox="0 0 18 18" fill="none" xmlns="http://www.w3.org/2000/svg">
<path d="M0 18L1.27221 13.3802C0.485673 12.0242 0.0730658 10.4886 0.0773638 8.91873C0.0773638 3.99953 4.10028 0 9.03867 0C11.437 0 13.6891 0.928232 15.3782 2.61359C17.0716 4.29895 18.0043 6.5404 18 8.92301C18 13.8422 13.9771 17.8417 9.03438 17.8417H9.03008C7.53008 17.8417 6.05587 17.4653 4.74498 16.7552L0 18ZM4.97277 15.1426L5.24355 15.3051C6.38681 15.981 7.6977 16.336 9.03438 16.3403H9.03867C13.1433 16.3403 16.4871 13.0166 16.4871 8.92728C16.4871 6.94677 15.7135 5.08603 14.308 3.68299C12.9026 2.27994 11.0286 1.50998 9.03867 1.50998C4.93409 1.5057 1.59026 4.82937 1.59026 8.91873C1.59026 10.3175 1.98137 11.682 2.72922 12.8626L2.90544 13.145L2.15329 15.8783L4.97277 15.1426Z" fill="#212121"/>
<path d="M0 18L1.27221 13.3802C0.485673 12.0242 0.0730658 10.4886 0.0773638 8.91873C0.0773638 3.99953 4.10028 0 9.03867 0C11.437 0 13.6891 0.928232 15.3782 2.61359C17.0716 4.29895 18.0043 6.5404 18 8.92301C18 13.8422 13.9771 17.8417 9.03438 17.8417H9.03008C7.53008 17.8417 6.05587 17.4653 4.74498 16.7552L0 18ZM4.97277 15.1426L5.24355 15.3051C6.38681 15.981 7.6977 16.336 9.03438 16.3403H9.03867C13.1433 16.3403 16.4871 13.0166 16.4871 8.92728C16.4871 6.94677 15.7135 5.08603 14.308 3.68299C12.9026 2.27994 11.0286 1.50998 9.03867 1.50998C4.93409 1.5057 1.59026 4.82937 1.59026 8.91873C1.59026 10.3175 1.98137 11.682 2.72922 12.8626L2.90544 13.145L2.15329 15.8783L4.97277 15.1426Z" fill="#212121"/>
<path fill-rule="evenodd" clip-rule="evenodd" d="M6.79913 5.18858C6.63151 4.81643 6.4553 4.80787 6.29627 4.80359C6.16733 4.79932 6.0169 4.79932 5.86647 4.79932C5.71604 4.79932 5.47535 4.85492 5.26905 5.07736C5.06275 5.29979 4.48682 5.83877 4.48682 6.9381C4.48682 8.03316 5.29054 9.09399 5.40229 9.24371C5.51404 9.39342 6.95386 11.7161 9.2275 12.6102C11.1186 13.3544 11.5054 13.2047 11.9137 13.1662C12.3221 13.1277 13.2375 12.6273 13.4266 12.1054C13.6115 11.5835 13.6115 11.1387 13.5556 11.0446C13.4997 10.9505 13.3493 10.8948 13.1258 10.7836C12.9023 10.6724 11.802 10.1334 11.5957 10.0564C11.3894 9.98373 11.239 9.94523 11.0928 10.1677C10.9424 10.3901 10.5126 10.8906 10.3837 11.0403C10.2547 11.19 10.1215 11.2071 9.89799 11.0959C9.67449 10.9847 8.95243 10.7494 8.09713 9.988C7.43094 9.3977 6.97965 8.66624 6.85071 8.4438C6.72177 8.22137 6.83782 8.1016 6.94956 7.99038C7.04842 7.892 7.17306 7.72945 7.28481 7.60112C7.39656 7.4728 7.43524 7.37869 7.5083 7.22897C7.58137 7.07926 7.54699 6.95093 7.49111 6.83972C7.43524 6.73278 6.99684 5.62916 6.79913 5.18858Z" fill="#212121"/>
</svg>
