<svg width="122" height="24" viewBox="0 0 122 24" fill="none" xmlns="http://www.w3.org/2000/svg">
<g clip-path="url(#clip0_4689_810819)">
<g clip-path="url(#clip1_4689_810819)">
<path d="M0 8.22878C0 5.34802 1.02929e-06 3.90816 0.560226 2.80829C1.05229 1.84058 1.83937 1.05404 2.80646 0.560594C3.90562 0 5.34558 0 8.22339 0H15.7609C18.6398 0 20.0787 0 21.1778 0.560594C22.1448 1.05298 22.9309 1.84058 23.424 2.80829C23.9843 3.90816 23.9843 5.34802 23.9843 8.22878V15.7712C23.9843 18.652 23.9843 20.0918 23.424 21.1917C22.932 22.1594 22.1448 22.9459 21.1778 23.4394C20.0787 24 18.6387 24 15.7609 24H8.22339C5.34451 24 3.90562 24 2.80646 23.4394C1.83937 22.947 1.05335 22.1594 0.560226 21.1917C1.02929e-06 20.0918 0 18.6509 0 15.7712V8.22878Z" fill="#FFB401"/>
<path d="M4.41892 3.97492C5.21772 2.95286 6.42338 2.29102 7.9805 2.29102C9.90296 2.29102 11.1086 3.15002 11.9937 3.98025C12.8788 3.14895 14.0844 2.29102 16.0068 2.29102C17.5641 2.29102 18.7685 2.95393 19.5685 3.97492C20.3523 4.97782 20.7197 6.28871 20.7197 7.59001C20.7197 10.7127 18.2361 13.0212 15.8077 14.7797L12.5017 17.2363C11.8978 17.685 11.7445 18.5237 12.1502 19.1568C12.5933 19.8496 13.5285 20.0264 14.1941 19.5426L17.2935 17.2928L18.1146 18.4256L15.0153 20.6755C13.6988 21.6315 11.8499 21.2819 10.9723 19.9114C10.1703 18.659 10.4738 16.9986 11.6667 16.1118L14.9791 13.65L14.9823 13.6468C17.4277 11.8765 19.3192 9.94215 19.3192 7.58894C19.3192 6.53278 19.0189 5.54481 18.4651 4.83607C17.9261 4.14652 17.1242 3.6893 16.0057 3.6893C14.3028 3.6893 13.3815 4.54937 12.4911 5.45209C12.3601 5.5853 12.1801 5.66097 11.9926 5.66097C11.8052 5.66097 11.6262 5.58636 11.4942 5.45209C10.6038 4.54831 9.68249 3.6893 7.97945 3.6893C6.86113 3.6893 6.05912 4.14758 5.5202 4.83607C4.96637 5.54374 4.66602 6.53278 4.66602 7.58894C4.66602 9.87182 6.48727 12.0183 8.82298 13.6382C9.14037 13.8589 9.21918 14.2947 8.99977 14.6123C8.77931 14.9299 8.34369 15.0088 8.0263 14.7893C5.60648 13.1107 3.26758 10.5987 3.26758 7.58894C3.26758 6.28871 3.63503 4.97782 4.41892 3.97492Z" fill="white"/>
<path d="M9.40234 6.7535C9.40234 6.69809 9.44708 6.65332 9.50247 6.65332H10.7017C10.7571 6.65332 10.8018 6.69809 10.8018 6.7535V8.62713C10.8018 8.68254 10.8466 8.7273 10.902 8.7273H13.0864C13.1418 8.7273 13.1865 8.68254 13.1865 8.62713V6.7535C13.1865 6.69809 13.2313 6.65332 13.2867 6.65332H14.4859C14.5413 6.65332 14.586 6.69809 14.586 6.7535V12.1015C14.586 12.1569 14.5413 12.2017 14.4859 12.2017H13.2867C13.2313 12.2017 13.1865 12.1569 13.1865 12.1015V10.2279C13.1865 10.1725 13.1418 10.1277 13.0864 10.1277H10.902C10.8466 10.1277 10.8018 10.1725 10.8018 10.2279V12.1015C10.8018 12.1569 10.7571 12.2017 10.7017 12.2017H9.50247C9.44708 12.2017 9.40234 12.1569 9.40234 12.1015V6.7535Z" fill="white"/>
<path d="M19.3356 15.8018C18.8841 15.8018 18.5187 16.1684 18.5187 16.6192C18.5187 17.0711 18.885 17.4367 19.3356 17.4367C19.7862 17.4367 20.1525 17.0701 20.1525 16.6192C20.1525 16.1674 19.7872 15.8018 19.3356 15.8018ZM17.1191 16.6192C17.1191 15.3947 18.1119 14.4014 19.3356 14.4014C20.5594 14.4014 21.5521 15.3947 21.5521 16.6192C21.5521 17.8448 20.5594 18.8372 19.3356 18.8372C18.1119 18.8372 17.1191 17.8448 17.1191 16.6192Z" fill="white"/>
<path d="M30.1035 16.4207V6.2627H31.249V10.7755H37.1085V6.2627H38.254V16.4207H37.1085V11.8481H31.249V16.4207H30.1035Z" fill="black"/>
<path d="M43.1704 16.5801C42.4067 16.5801 41.7486 16.373 41.1987 15.9563C40.6474 15.5408 40.3711 14.96 40.3711 14.2139C40.3711 13.4303 40.6613 12.8259 41.2417 12.3994C41.8221 11.9742 42.5997 11.7602 43.5772 11.7602C44.3506 11.7602 45.1142 11.8672 45.8696 12.0798V11.8478C45.8696 11.1906 45.6766 10.6862 45.2891 10.3389C44.9017 9.99152 44.3562 9.81645 43.6494 9.81645C42.9134 9.81645 42.1554 9.99568 41.3722 10.3541L41.039 9.43992C41.9665 9.01475 42.876 8.80078 43.766 8.80078C44.8296 8.80078 45.6363 9.07728 46.1889 9.62888C46.7109 10.1513 46.972 10.8863 46.972 11.8353V16.4217H45.8696V15.3046C45.2017 16.1549 44.302 16.5801 43.1704 16.5801ZM43.3883 15.6811C44.0853 15.6811 44.674 15.4922 45.1587 15.1157C45.6419 14.7377 45.8835 14.2542 45.8835 13.6651V12.9676C45.1489 12.7551 44.4187 12.6481 43.6939 12.6481C43.0065 12.6481 42.4705 12.7856 42.0845 13.0621C41.6971 13.3372 41.5041 13.7124 41.5041 14.1875C41.5041 14.6433 41.6861 15.0059 42.0484 15.2755C42.4094 15.545 42.8565 15.6811 43.3883 15.6811Z" fill="black"/>
<path d="M49.3066 16.4207V6.2627H57.7764V16.4207H55.5424V8.27873H51.5407V16.4207H49.3066Z" fill="black"/>
<path d="M66.8058 15.4186C65.9977 16.2021 64.9952 16.5939 63.7955 16.5939C62.5958 16.5939 61.5974 16.2036 60.8005 15.4255C60.0021 14.6474 59.6035 13.686 59.6035 12.5452C59.6035 11.4129 60.0077 10.4556 60.8144 9.67056C61.6225 8.88555 62.6251 8.49512 63.8246 8.49512C65.0243 8.49512 66.0227 8.88416 66.8196 9.66361C67.6167 10.4417 68.0166 11.4018 68.0166 12.5439C68.0166 13.6776 67.6125 14.6349 66.8058 15.4186ZM63.8246 14.6933C64.4343 14.6933 64.9216 14.4876 65.2895 14.0764C65.656 13.6651 65.8407 13.1552 65.8407 12.5452C65.8407 11.9547 65.6506 11.449 65.2673 11.028C64.8855 10.607 64.3953 10.3972 63.7955 10.3972C63.186 10.3972 62.6972 10.6029 62.3307 11.0141C61.9626 11.4254 61.7794 11.9353 61.7794 12.5452C61.7794 13.1358 61.9696 13.6415 62.3529 14.0625C62.7347 14.4821 63.2248 14.6933 63.8246 14.6933Z" fill="black"/>
<path d="M76.6747 8.64062V16.42H74.4697V10.5274H71.8148V16.42H69.6113V8.64062H76.6747Z" fill="black"/>
<path d="M78.6465 18.7434V8.64101H80.85V9.75809C81.4693 8.91611 82.2759 8.49512 83.2729 8.49512C84.2407 8.49512 85.0711 8.85776 85.7681 9.58302C86.465 10.3083 86.8122 11.2948 86.8122 12.5439C86.8122 13.7818 86.4665 14.7627 85.7751 15.4825C85.0835 16.2021 84.2491 16.5634 83.2729 16.5634C82.3065 16.5634 81.4984 16.1771 80.85 15.4033V18.7407L78.6465 18.7434ZM81.3665 14.0917C81.7289 14.4932 82.176 14.6933 82.7078 14.6933C83.2396 14.6933 83.6894 14.4932 84.0561 14.0917C84.424 13.6901 84.6074 13.1649 84.6074 12.5175C84.6074 11.8895 84.424 11.374 84.0561 10.9724C83.6881 10.5709 83.2396 10.3694 82.7078 10.3694C82.176 10.3694 81.7289 10.5695 81.3665 10.9724C81.0041 11.374 80.8222 11.8992 80.8222 12.5466C80.8222 13.1747 81.0041 13.6901 81.3665 14.0917Z" fill="black"/>
<path d="M90.6408 16.566C89.8771 16.566 89.2411 16.3535 88.7329 15.9269C88.2261 15.5018 87.9707 14.9113 87.9707 14.1568C87.9707 13.3343 88.2539 12.7146 88.8189 12.2992C89.3842 11.8837 90.1464 11.6753 91.1045 11.6753C91.7516 11.6753 92.386 11.7823 93.004 11.9949V11.8643C93.004 10.9167 92.4486 10.4415 91.3363 10.4415C90.6684 10.4415 89.9534 10.5818 89.1897 10.8625L88.6386 9.17854C89.5869 8.7631 90.5922 8.55469 91.6558 8.55469C92.8262 8.55469 93.701 8.84509 94.2814 9.42586C94.8424 9.98718 95.1228 10.8139 95.1228 11.9073V16.4215H92.9914V15.5796C92.4 16.2367 91.6168 16.566 90.6408 16.566ZM91.3072 15.0419C91.8195 15.0419 92.2348 14.914 92.5541 14.657C92.8734 14.4013 93.0331 14.0748 93.0331 13.6775V13.2856C92.6179 13.0925 92.1486 12.9966 91.6253 12.9966C91.1421 12.9966 90.7671 13.0911 90.5018 13.2787C90.2353 13.4677 90.1019 13.7414 90.1019 14.0984C90.1019 14.3888 90.2131 14.6181 90.4352 14.7876C90.6601 14.9585 90.9503 15.0419 91.3072 15.0419Z" fill="black"/>
<path d="M97.0234 8.64062H101.288C102.08 8.64062 102.711 8.8157 103.18 9.16304C103.649 9.5104 103.884 9.98559 103.884 10.5858C103.884 11.3986 103.473 11.9836 102.651 12.342C103.666 12.6519 104.174 13.3049 104.174 14.3011C104.174 14.9583 103.916 15.4765 103.398 15.8544C102.882 16.2323 102.172 16.42 101.274 16.42H97.0234V8.64062ZM100.75 11.7612C101.05 11.7612 101.281 11.689 101.439 11.5431C101.599 11.3986 101.679 11.2096 101.679 10.9776C101.679 10.7748 101.603 10.6053 101.453 10.4705C101.303 10.3357 101.078 10.2676 100.778 10.2676H99.1979V11.7612H100.75ZM99.1993 14.6929H100.939C101.607 14.6929 101.94 14.4317 101.94 13.9093C101.94 13.4063 101.587 13.1548 100.881 13.1548H99.1979L99.1993 14.6929Z" fill="black"/>
<path d="M105.725 16.42V8.64062H107.93V11.8335L110.715 8.64062H113.253L110.395 11.8335L113.615 16.42H111.004L108.931 13.4591L107.93 14.5484V16.42H105.725Z" fill="black"/>
<path d="M116.442 18.7861C115.745 18.7861 115.094 18.6069 114.484 18.2483L115.224 16.652C115.563 16.8549 115.877 16.9563 116.167 16.9563C116.516 16.9563 116.771 16.7867 116.935 16.4491L113.889 8.64062H116.224L117.993 13.9385L119.69 8.64062H121.981L118.993 16.609C118.693 17.412 118.355 17.976 117.978 18.2999C117.603 18.6235 117.091 18.7861 116.442 18.7861Z" fill="black"/>
</g>
</g>
<defs>
<clipPath id="clip0_4689_810819">
<rect width="122" height="24" fill="white"/>
</clipPath>
<clipPath id="clip1_4689_810819">
<rect width="122" height="24" fill="white"/>
</clipPath>
</defs>
</svg>
