<svg xmlns="http://www.w3.org/2000/svg" width="16" height="16" viewBox="0 0 16 16" fill="none">
    <path d="M8.33844 13.1034L12.2151 15.5511C12.715 15.8647 13.3304 15.3982 13.1842 14.8245L12.0612 10.4339C12.0309 10.3122 12.0357 10.1845 12.0752 10.0654C12.1146 9.94628 12.1871 9.8407 12.2843 9.7608L15.761 6.8771C16.2148 6.5023 15.984 5.74504 15.3918 5.7068L10.8536 5.41613C10.7298 5.40897 10.6108 5.36609 10.5111 5.29273C10.4113 5.21938 10.3353 5.11873 10.2921 5.00308L8.59996 0.765505C8.55516 0.643046 8.47356 0.53726 8.36623 0.462507C8.2589 0.387754 8.13104 0.347656 8 0.347656C7.86896 0.347656 7.7411 0.387754 7.63377 0.462507C7.52644 0.53726 7.44484 0.643046 7.40004 0.765505L5.70786 5.00308C5.66474 5.11873 5.58867 5.21938 5.48895 5.29273C5.38923 5.36609 5.27019 5.40897 5.14637 5.41613L0.608244 5.7068C0.0159811 5.74504 -0.214771 6.5023 0.239041 6.8771L3.71571 9.7608C3.81288 9.8407 3.88537 9.94628 3.92484 10.0654C3.9643 10.1845 3.96913 10.3122 3.93876 10.4339L2.90038 14.5032C2.72347 15.1916 3.46188 15.75 4.05414 15.3752L7.66156 13.1034C7.76272 13.0395 7.88012 13.0055 8 13.0055C8.11988 13.0055 8.23728 13.0395 8.33844 13.1034Z" fill="#FFB070"/>
</svg>