<svg width="130" height="40" viewBox="0 0 130 40" fill="none" xmlns="http://www.w3.org/2000/svg">
<rect x="0.5" y="0.5" width="129" height="39" rx="3.5" stroke="#8E959B"/>
<path d="M65.614 21.7511C63.3491 21.7511 61.5031 23.5401 61.5031 26.0041C61.5031 28.4531 63.3491 30.2571 65.614 30.2571C67.8798 30.2571 69.7258 28.4531 69.7258 26.0041C69.7248 23.5401 67.8788 21.7511 65.614 21.7511ZM65.614 28.5831C64.3727 28.5831 63.3028 27.5201 63.3028 26.0051C63.3028 24.4741 64.3737 23.4271 65.614 23.4271C66.8552 23.4271 67.9251 24.4741 67.9251 26.0051C67.9251 27.5191 66.8552 28.5831 65.614 28.5831ZM56.6449 21.7511C54.38 21.7511 52.534 23.5401 52.534 26.0041C52.534 28.4531 54.38 30.2571 56.6449 30.2571C58.9108 30.2571 60.7568 28.4531 60.7568 26.0041C60.7568 23.5401 58.9108 21.7511 56.6449 21.7511ZM56.6449 28.5831C55.4037 28.5831 54.3338 27.5201 54.3338 26.0051C54.3338 24.4741 55.4046 23.4271 56.6449 23.4271C57.8862 23.4271 58.956 24.4741 58.956 26.0051C58.957 27.5191 57.8862 28.5831 56.6449 28.5831ZM45.9772 23.0571V24.8611H50.1353C50.0111 25.8761 49.6856 26.6171 49.1887 27.1321C48.584 27.7601 47.6374 28.4531 45.9772 28.4531C43.4177 28.4531 41.4166 26.3101 41.4166 23.6521C41.4166 20.9941 43.4177 18.8511 45.9772 18.8511C47.3581 18.8511 48.3663 19.4151 49.1107 20.1401L50.3365 18.8671C49.2965 17.8361 47.9166 17.0471 45.9772 17.0471C42.4711 17.0471 39.5234 20.0111 39.5234 23.6521C39.5234 27.2931 42.4711 30.2571 45.9772 30.2571C47.8694 30.2571 49.2975 29.6121 50.4136 28.4041C51.5614 27.2121 51.9187 25.5361 51.9187 24.1831C51.9187 23.7651 51.8879 23.3781 51.8253 23.0561H45.9772V23.0571ZM89.6071 24.4581C89.2663 23.5081 88.2263 21.7511 86.101 21.7511C83.9911 21.7511 82.2376 23.4751 82.2376 26.0041C82.2376 28.3881 83.9757 30.2571 86.3023 30.2571C88.1791 30.2571 89.2653 29.0651 89.716 28.3721L88.3197 27.4051C87.8545 28.1141 87.218 28.5811 86.3023 28.5811C85.3874 28.5811 84.7355 28.1461 84.3166 27.2921L89.793 24.9401L89.6071 24.4581ZM84.022 25.8761C83.9757 24.2321 85.2478 23.3951 86.1636 23.3951C86.8771 23.3951 87.4819 23.7661 87.6841 24.2971L84.022 25.8761ZM79.5702 30.0001H81.369V17.4991H79.5702V30.0001ZM76.6216 22.7021H76.56C76.1565 22.2021 75.3803 21.7511 74.4039 21.7511C72.3557 21.7511 70.4788 23.6201 70.4788 26.0211C70.4788 28.4051 72.3557 30.2581 74.4039 30.2581C75.3813 30.2581 76.1565 29.8071 76.56 29.2921H76.6216V29.9041C76.6216 31.5311 75.7838 32.4011 74.4347 32.4011C73.3331 32.4011 72.6503 31.5801 72.3711 30.8871L70.8043 31.5641C71.254 32.6911 72.4481 34.0771 74.4347 34.0771C76.5445 34.0771 78.3289 32.7881 78.3289 29.6461V22.0101H76.6225V22.7021H76.6216ZM74.5589 28.5831C73.3177 28.5831 72.2786 27.5031 72.2786 26.0211C72.2786 24.5221 73.3177 23.4271 74.5589 23.4271C75.7838 23.4271 76.7458 24.5221 76.7458 26.0211C76.7458 27.5031 75.7838 28.5831 74.5589 28.5831ZM98.0369 17.4991H93.7315V30.0001H95.5274V25.2641H98.036C100.027 25.2641 101.986 23.7671 101.986 21.3821C101.986 18.9971 100.028 17.4991 98.0369 17.4991ZM98.0831 23.5241H95.5274V19.2391H98.0831C99.4265 19.2391 100.189 20.3941 100.189 21.3821C100.189 22.3501 99.4265 23.5241 98.0831 23.5241ZM109.188 21.7291C107.887 21.7291 106.54 22.3241 105.982 23.6431L107.577 24.3341C107.918 23.6431 108.553 23.4171 109.219 23.4171C110.148 23.4171 111.093 23.9961 111.108 25.0251V25.1541C110.783 24.9611 110.086 24.6721 109.234 24.6721C107.515 24.6721 105.765 25.6531 105.765 27.4861C105.765 29.1591 107.174 30.2361 108.754 30.2361C109.961 30.2361 110.628 29.6731 111.046 29.0131H111.107V29.9781H112.842V25.1851C112.843 22.9671 111.247 21.7291 109.188 21.7291ZM108.97 28.5801C108.383 28.5801 107.562 28.2741 107.562 27.5181C107.562 26.5531 108.584 26.1831 109.467 26.1831C110.256 26.1831 110.629 26.3601 111.108 26.6011C110.969 27.7601 110.008 28.5801 108.97 28.5801ZM119.161 22.0021L117.102 27.4221H117.04L114.902 22.0021H112.967L116.172 29.5771L114.345 33.7911H116.219L121.16 22.0021H119.161ZM102.978 30.0001H104.774V17.4991H102.978V30.0001Z" fill="#8E959B"/>
<path d="M45.6616 10.2429C45.6616 11.0809 45.4228 11.7479 44.9442 12.2459C44.4011 12.8379 43.6924 13.1339 42.8219 13.1339C41.9879 13.1339 41.2782 12.8339 40.6956 12.2339C40.1121 11.6329 39.8203 10.8889 39.8203 10.0009C39.8203 9.11194 40.1121 8.36794 40.6956 7.76794C41.2782 7.16694 41.9879 6.86694 42.8219 6.86694C43.2359 6.86694 43.6317 6.95094 44.0073 7.11794C44.3838 7.28594 44.6852 7.50894 44.9105 7.78794L44.4031 8.31594C44.0208 7.84094 43.494 7.60394 42.8209 7.60394C42.2123 7.60394 41.6865 7.82594 41.2426 8.26994C40.7987 8.71394 40.5772 9.29094 40.5772 9.99994C40.5772 10.7089 40.7987 11.2859 41.2426 11.7299C41.6865 12.1739 42.2123 12.3959 42.8209 12.3959C43.4661 12.3959 44.0044 12.1729 44.4348 11.7259C44.7141 11.4349 44.8759 11.0299 44.9192 10.5109H42.8209V9.78994H45.6202C45.6491 9.94694 45.6616 10.0979 45.6616 10.2429Z" fill="#8E959B"/>
<path d="M50.101 7.737H47.4702V9.639H49.8429V10.36H47.4702V12.262H50.101V13H46.7277V7H50.101V7.737Z" fill="#8E959B"/>
<path d="M53.2315 13H52.489V7.737H50.8751V7H54.8454V7.737H53.2315V13Z" fill="#8E959B"/>
<path d="M57.7179 13V7H58.4603V13H57.7179Z" fill="#8E959B"/>
<path d="M61.7529 13H61.0104V7.737H59.3965V7H63.3668V7.737H61.7529V13Z" fill="#8E959B"/>
<path d="M70.8825 12.225C70.3143 12.831 69.6085 13.134 68.764 13.134C67.9194 13.134 67.2136 12.831 66.6464 12.225C66.0783 11.619 65.7952 10.877 65.7952 9.99999C65.7952 9.12299 66.0783 8.38099 66.6464 7.77499C67.2136 7.16899 67.9194 6.86499 68.764 6.86499C69.6037 6.86499 70.3086 7.16999 70.8786 7.77899C71.4487 8.38799 71.7337 9.12799 71.7337 9.99999C71.7337 10.877 71.4497 11.619 70.8825 12.225ZM67.1943 11.722C67.6219 12.172 68.1448 12.396 68.764 12.396C69.3832 12.396 69.907 12.171 70.3336 11.722C70.7612 11.272 70.9759 10.698 70.9759 9.99999C70.9759 9.30199 70.7612 8.72799 70.3336 8.27799C69.907 7.82799 69.3832 7.60399 68.764 7.60399C68.1448 7.60399 67.6219 7.82899 67.1943 8.27799C66.7677 8.72799 66.553 9.30199 66.553 9.99999C66.553 10.698 66.7677 11.272 67.1943 11.722Z" fill="#8E959B"/>
<path d="M72.7757 13V7H73.679L76.487 11.667H76.5187L76.487 10.511V7H77.2294V13H76.4542L73.5162 8.106H73.4844L73.5162 9.262V13H72.7757Z" fill="#8E959B"/>
<path d="M45.6616 10.2429C45.6616 11.0809 45.4228 11.7479 44.9442 12.2459C44.4011 12.8379 43.6924 13.1339 42.8219 13.1339C41.9879 13.1339 41.2782 12.8339 40.6956 12.2339C40.1121 11.6329 39.8203 10.8889 39.8203 10.0009C39.8203 9.11194 40.1121 8.36794 40.6956 7.76794C41.2782 7.16694 41.9879 6.86694 42.8219 6.86694C43.2359 6.86694 43.6317 6.95094 44.0073 7.11794C44.3838 7.28594 44.6852 7.50894 44.9105 7.78794L44.4031 8.31594C44.0208 7.84094 43.494 7.60394 42.8209 7.60394C42.2123 7.60394 41.6865 7.82594 41.2426 8.26994C40.7987 8.71394 40.5772 9.29094 40.5772 9.99994C40.5772 10.7089 40.7987 11.2859 41.2426 11.7299C41.6865 12.1739 42.2123 12.3959 42.8209 12.3959C43.4661 12.3959 44.0044 12.1729 44.4348 11.7259C44.7141 11.4349 44.8759 11.0299 44.9192 10.5109H42.8209V9.78994H45.6202C45.6491 9.94694 45.6616 10.0979 45.6616 10.2429Z" stroke="#8E959B" stroke-width="0.2" stroke-miterlimit="10"/>
<path d="M50.101 7.737H47.4702V9.639H49.8429V10.36H47.4702V12.262H50.101V13H46.7277V7H50.101V7.737Z" stroke="#8E959B" stroke-width="0.2" stroke-miterlimit="10"/>
<path d="M53.2315 13H52.489V7.737H50.8751V7H54.8454V7.737H53.2315V13Z" stroke="#8E959B" stroke-width="0.2" stroke-miterlimit="10"/>
<path d="M57.7179 13V7H58.4603V13H57.7179Z" stroke="#8E959B" stroke-width="0.2" stroke-miterlimit="10"/>
<path d="M61.7529 13H61.0104V7.737H59.3965V7H63.3668V7.737H61.7529V13Z" stroke="#8E959B" stroke-width="0.2" stroke-miterlimit="10"/>
<path d="M70.8825 12.225C70.3143 12.831 69.6085 13.134 68.764 13.134C67.9194 13.134 67.2136 12.831 66.6464 12.225C66.0783 11.619 65.7952 10.877 65.7952 9.99999C65.7952 9.12299 66.0783 8.38099 66.6464 7.77499C67.2136 7.16899 67.9194 6.86499 68.764 6.86499C69.6037 6.86499 70.3086 7.16999 70.8786 7.77899C71.4487 8.38799 71.7337 9.12799 71.7337 9.99999C71.7337 10.877 71.4497 11.619 70.8825 12.225ZM67.1943 11.722C67.6219 12.172 68.1448 12.396 68.764 12.396C69.3832 12.396 69.907 12.171 70.3336 11.722C70.7612 11.272 70.9759 10.698 70.9759 9.99999C70.9759 9.30199 70.7612 8.72799 70.3336 8.27799C69.907 7.82799 69.3832 7.60399 68.764 7.60399C68.1448 7.60399 67.6219 7.82899 67.1943 8.27799C66.7677 8.72799 66.553 9.30199 66.553 9.99999C66.553 10.698 66.7677 11.272 67.1943 11.722Z" stroke="#8E959B" stroke-width="0.2" stroke-miterlimit="10"/>
<path d="M72.7757 13V7H73.679L76.487 11.667H76.5187L76.487 10.511V7H77.2294V13H76.4542L73.5162 8.106H73.4844L73.5162 9.262V13H72.7757Z" stroke="#8E959B" stroke-width="0.2" stroke-miterlimit="10"/>
<path fill-rule="evenodd" clip-rule="evenodd" d="M9.77411 7.97596C9.66291 8.2417 9.60156 8.56621 9.60156 8.94294V31.0589C9.60156 31.4365 9.66299 31.761 9.77431 32.0267L21.3534 20.0006L9.77411 7.97596ZM10.4569 32.7595C10.8852 32.9454 11.4419 32.8832 12.0484 32.5259L25.6728 24.4861L22.0475 20.7214L10.4569 32.7595ZM26.5587 23.9644L30.8272 21.4459C32.1724 20.6509 32.1724 19.3519 30.8272 18.5579L26.5567 16.038L22.7416 20.0005L26.5587 23.9644ZM25.6715 15.5157L12.0484 7.47694C11.4418 7.11896 10.8851 7.05708 10.4568 7.24326L22.0474 19.2797L25.6715 15.5157Z" fill="#8E959B"/>
</svg>
