<svg width="61" height="24" viewBox="0 0 61 24" fill="none" xmlns="http://www.w3.org/2000/svg">
    <g class="vc-footer__vit-text">
        <path d="M46.4935 17.1413C45.9872 17.1413 45.5762 16.7303 45.5762 16.224V7.77479C45.5762 7.26846 45.9872 6.85742 46.4935 6.85742C46.9999 6.85742 47.4109 7.26846 47.4109 7.77479V16.224C47.4109 16.7303 46.9999 17.1413 46.4935 17.1413Z" fill="#788D98"/>
        <path d="M56.0326 17.1432C55.5263 17.1432 55.1152 16.7321 55.1152 16.2258V7.96033C55.1152 7.454 55.5263 7.04297 56.0326 7.04297C56.5389 7.04297 56.95 7.454 56.95 7.96033V16.2258C56.95 16.7321 56.5389 17.1432 56.0326 17.1432Z" fill="#788D98"/>
        <path d="M60.0817 8.45793H51.9838C51.5418 8.45793 51.1836 8.09971 51.1836 7.65768C51.1836 7.21564 51.5418 6.85742 51.9838 6.85742H60.0817C60.5237 6.85742 60.8819 7.21564 60.8819 7.65768C60.8819 8.09971 60.5237 8.45793 60.0817 8.45793Z" fill="#788D98"/>
        <path d="M37.0738 14.7329L34.0071 7.40658C33.8682 7.07362 33.5421 6.85662 33.1816 6.85662H33.1483C32.5053 6.85662 32.0725 7.51335 32.3251 8.10465L35.8579 16.3483C36.3137 17.4103 37.8212 17.4057 38.269 16.3391L41.7318 8.09776C41.9798 7.50761 41.5469 6.85547 40.9063 6.85547C40.5435 6.85547 40.2162 7.07476 40.0785 7.41117L37.0738 14.7317V14.7329Z" fill="#788D98"/>
    </g>
    <g class="vc-footer__vit-first-gradient">
        <path d="M20.1693 1.95428L14.241 15.9175L8.31266 1.95428C7.33419 -0.336476 4.24915 -0.681816 2.7757 1.32116C0.991448 3.73853 -0.0445726 6.743 0.00147276 9.98919C0.116586 17.6557 6.37875 23.8949 14.0338 23.9985C21.9881 24.1136 28.4805 17.6903 28.4805 9.75897C28.4805 6.59335 27.4445 3.68098 25.7063 1.30965C24.2328 -0.693325 21.1478 -0.336476 20.1693 1.95428Z" fill="url(#paint0_linear_3596_101321)"/>
    </g>
    <defs>
        <linearGradient id="paint0_linear_3596_101321" x1="0.00240518" y1="11.9979" x2="28.4832" y2="11.9979" gradientUnits="userSpaceOnUse">
            <stop stop-color="#788D98"/>
            <stop offset="1" stop-color="#788D98"/>
        </linearGradient>
    </defs>
    <g class="vc-footer__vit-second-gradient">
        <path d="M14.241 15.9175L8.31265 1.95424C7.3457 -0.325006 4.26067 -0.693363 2.78722 1.2981C0.991448 3.71548 -0.0445727 6.73145 0.00147265 9.97764C0.047518 12.8555 0.956914 15.5376 2.48792 17.7708C5.42331 22.0415 11.9272 21.3854 13.9532 16.6082L14.241 15.9175Z" fill="url(#paint1_linear_3596_101321)"/>
    </g>
    <defs>
        <linearGradient id="paint1_linear_3596_101321" x1="7.12261" y1="20.6153" x2="7.12261" y2="-0.00265125" gradientUnits="userSpaceOnUse">
            <stop offset="0.000500801" stop-color="#BECDD6"/>
            <stop offset="1" stop-color="#BECDD6" stop-opacity="1"/>
        </linearGradient>
    </defs>
</svg>
