<svg xmlns="http://www.w3.org/2000/svg" width="16" height="17" viewBox="0 0 16 17" fill="none">
    <path fill-rule="evenodd" clip-rule="evenodd" d="M15.2761 12.1391V14.4191C15.2777 14.8471 15.1075 15.256 14.8071 15.5453C14.5067 15.8346 14.1041 15.9776 13.6982 15.9391C11.4709 15.685 9.33142 14.8858 7.45169 13.6059C5.70284 12.439 4.22013 10.8822 3.10883 9.04588C1.88558 7.06319 1.12432 4.80584 0.886739 2.45668C0.850168 2.03174 0.985374 1.61023 1.25933 1.29511C1.53329 0.979992 1.92077 0.800281 2.32712 0.799879H4.49855C5.22515 0.79237 5.84447 1.35161 5.94617 2.10708C6.03782 2.83673 6.20779 3.55315 6.45283 4.24268C6.65169 4.79814 6.5245 5.42433 6.12712 5.84628L5.20788 6.81148C6.23827 8.71417 7.73865 10.2896 9.55074 11.3715L10.47 10.4063C10.8718 9.98903 11.4682 9.85548 11.9972 10.0643C12.6539 10.3216 13.3362 10.5 14.0311 10.5963C14.759 10.7041 15.2943 11.3675 15.2761 12.1391Z" stroke="#41404D" stroke-width="1.2" stroke-linecap="round" stroke-linejoin="round"/>
</svg>