<?xml version="1.0" standalone="no"?>
<!DOCTYPE svg PUBLIC "-//W3C//DTD SVG 20010904//EN"
 "http://www.w3.org/TR/2001/REC-SVG-20010904/DTD/svg10.dtd">
<svg version="1.0" xmlns="http://www.w3.org/2000/svg"
 width="700.000000pt" height="700.000000pt" viewBox="0 0 700.000000 700.000000"
 preserveAspectRatio="xMidYMid meet">
<metadata>
Created by potrace 1.14, written by Peter Selinger 2001-2017
</metadata>
<g transform="translate(0.000000,700.000000) scale(0.100000,-0.100000)"
fill="#000000" stroke="none">
<path d="M1899 6996 c-2 -2 -40 -6 -83 -10 -44 -4 -82 -8 -85 -10 -3 -2 -28
-7 -56 -10 -27 -4 -86 -16 -130 -27 -44 -12 -87 -22 -95 -24 -55 -12 -300
-109 -340 -135 -8 -5 -30 -16 -48 -25 -49 -21 -248 -156 -312 -210 -276 -235
-471 -506 -603 -841 -33 -83 -80 -235 -91 -294 -3 -14 -12 -60 -20 -103 -25
-126 -31 -201 -30 -392 1 -161 7 -260 19 -305 2 -8 7 -35 10 -59 29 -201 151
-508 283 -711 155 -239 427 -500 648 -624 76 -43 109 -66 107 -74 -2 -9 -290
-487 -338 -562 -13 -19 -96 -156 -185 -305 -90 -148 -173 -286 -185 -305 -68
-104 -214 -353 -238 -404 -117 -247 -137 -532 -56 -785 125 -394 439 -674 844
-757 85 -17 195 -18 2105 -18 1967 0 2101 2 2242 30 13 2 39 7 58 10 95 16
291 72 365 104 11 5 41 18 67 29 26 12 49 21 51 21 10 0 198 106 257 145 514
338 865 929 928 1560 16 158 7 447 -18 575 -6 30 -13 69 -15 85 -11 63 -60
224 -96 318 -187 472 -517 829 -1010 1092 l-126 67 120 196 c66 109 128 211
137 227 23 40 419 687 486 796 30 47 54 91 54 98 0 6 4 11 8 11 10 0 74 128
101 202 28 76 43 138 57 233 5 40 5 212 0 250 -17 111 -30 162 -68 260 -59
152 -132 262 -252 379 -66 65 -228 186 -249 186 -3 0 -34 13 -69 29 -79 36
-111 46 -223 70 -87 19 -145 20 -2006 20 -1054 1 -1918 -1 -1920 -3z"/>
</g>
</svg>
