<svg xmlns="http://www.w3.org/2000/svg" width="16" height="18" viewBox="0 0 16 18" fill="none">
    <path d="M4.5 2.77778H2.75C1.7835 2.77778 1 3.57372 1 4.55556V15.2222C1 16.2041 1.7835 17 2.75 17H13.25C14.2165 17 15 16.2041 15 15.2222V4.55556C15 3.57372 14.2165 2.77778 13.25 2.77778H11.5M4.5 2.77778C4.5 3.75962 5.2835 4.55556 6.25 4.55556H9.75C10.7165 4.55556 11.5 3.75962 11.5 2.77778M4.5 2.77778C4.5 1.79594 5.2835 1 6.25 1H9.75C10.7165 1 11.5 1.79594 11.5 2.77778M5.375 9.88889L7.125 11.6667L10.625 8.11111" stroke="#7668E7" stroke-width="1.5" stroke-linecap="round" stroke-linejoin="round"/>
</svg>