<svg xmlns="http://www.w3.org/2000/svg" width="18" height="16" viewBox="0 0 18 16" fill="none">
    <path d="M1 2.4V13.6C1 13.9713 1.14658 14.3274 1.4075 14.5899C1.66842 14.8525 2.02231 15 2.3913 15H16.3043C16.4888 15 16.6658 14.9263 16.7962 14.795C16.9267 14.6637 17 14.4857 17 14.3V4.5C17 4.31435 16.9267 4.1363 16.7962 4.00503C16.6658 3.87375 16.4888 3.8 16.3043 3.8H2.3913C2.02231 3.8 1.66842 3.6525 1.4075 3.38995C1.14658 3.1274 1 2.7713 1 2.4ZM1 2.4C1 2.0287 1.14658 1.6726 1.4075 1.41005C1.66842 1.1475 2.02231 1 2.3913 1H14.2174" stroke="#7668E7" stroke-width="1.5" stroke-linecap="round" stroke-linejoin="round"/>
    <path d="M13.7178 9.40059C13.7178 9.70728 13.4716 9.95059 13.1743 9.95059C12.8771 9.95059 12.6309 9.70728 12.6309 9.40059C12.6309 9.09389 12.8771 8.85059 13.1743 8.85059C13.4716 8.85059 13.7178 9.09389 13.7178 9.40059Z" fill="#212121" stroke="#7668E7"/>
</svg>