<svg xmlns="http://www.w3.org/2000/svg" width="720" height="276" viewBox="0 0 720 276" fill="none">
    <g opacity="0.5">
        <path d="M147.509 276C143.897 276 142.092 274.183 142.092 270.548V228.614H5.41699C1.80566 228.614 0 226.936 0 223.581V214.356C0 211.281 0.555589 208.625 1.66677 206.388L104.173 5.5204C105.84 2.72475 108.062 1.32692 110.84 1.32692H161.26C165.982 1.32692 167.232 3.42366 165.01 7.61714L79.588 178.292H143.758L148.759 98.1964C149.037 94.562 150.842 92.7448 154.176 92.7448H195.845C199.456 92.7448 201.262 94.562 201.262 98.1964V178.292H227.097C230.708 178.292 232.514 180.109 232.514 183.743V223.581C232.514 226.936 230.708 228.614 227.097 228.614H201.262V270.548C201.262 274.183 199.456 276 195.845 276H147.509Z" fill="#CFEBFF"/>
        <path d="M147.509 276C143.897 276 142.092 274.183 142.092 270.548V228.614H5.41699C1.80566 228.614 0 226.936 0 223.581V214.356C0 211.281 0.555589 208.625 1.66677 206.388L104.173 5.5204C105.84 2.72475 108.062 1.32692 110.84 1.32692H161.26C165.982 1.32692 167.232 3.42366 165.01 7.61714L79.588 178.292H143.758L148.759 98.1964C149.037 94.562 150.842 92.7448 154.176 92.7448H195.845C199.456 92.7448 201.262 94.562 201.262 98.1964V178.292H227.097C230.708 178.292 232.514 180.109 232.514 183.743V223.581C232.514 226.936 230.708 228.614 227.097 228.614H201.262V270.548C201.262 274.183 199.456 276 195.845 276H147.509Z" fill="url(#paint0_linear_146_29851)" fill-opacity="0.5"/>
        <path d="M634.995 276C631.384 276 629.578 274.183 629.578 270.548V228.614H492.903C489.292 228.614 487.486 226.936 487.486 223.581V214.356C487.486 211.281 488.042 208.625 489.153 206.388L591.659 5.5204C593.326 2.72475 595.548 1.32692 598.326 1.32692H648.746C653.468 1.32692 654.718 3.42366 652.496 7.61714L567.074 178.292H631.245L636.245 98.1964C636.523 94.562 638.329 92.7448 641.662 92.7448H683.331C686.943 92.7448 688.748 94.562 688.748 98.1964V178.292H714.583C718.194 178.292 720 180.109 720 183.743V223.581C720 226.936 718.194 228.614 714.583 228.614H688.748V270.548C688.748 274.183 686.943 276 683.331 276H634.995Z" fill="#CFEBFF"/>
        <path d="M634.995 276C631.384 276 629.578 274.183 629.578 270.548V228.614H492.903C489.292 228.614 487.486 226.936 487.486 223.581V214.356C487.486 211.281 488.042 208.625 489.153 206.388L591.659 5.5204C593.326 2.72475 595.548 1.32692 598.326 1.32692H648.746C653.468 1.32692 654.718 3.42366 652.496 7.61714L567.074 178.292H631.245L636.245 98.1964C636.523 94.562 638.329 92.7448 641.662 92.7448H683.331C686.943 92.7448 688.748 94.562 688.748 98.1964V178.292H714.583C718.194 178.292 720 180.109 720 183.743V223.581C720 226.936 718.194 228.614 714.583 228.614H688.748V270.548C688.748 274.183 686.943 276 683.331 276H634.995Z" fill="url(#paint1_linear_146_29851)" fill-opacity="0.5"/>
        <path d="M359.8 273.346C327.552 273.346 302.899 264.892 285.842 247.984C268.785 230.808 260.257 206.385 260.257 174.716V98.6301C260.257 66.9611 268.785 42.6726 285.842 25.7646C302.899 8.5882 327.552 0 359.8 0C392.315 0 417.101 8.5882 434.158 25.7646C451.215 42.6726 459.743 66.9611 459.743 98.6301V174.716C459.743 206.385 451.215 230.808 434.158 247.984C417.101 264.892 392.315 273.346 359.8 273.346ZM359.8 224.635C373.925 224.635 384.719 220.475 392.182 212.155C399.911 203.567 403.775 191.087 403.775 174.716V98.6301C403.775 82.2588 399.911 69.9133 392.182 61.5935C384.719 53.0053 373.925 48.7112 359.8 48.7112C345.675 48.7112 334.881 53.0053 327.419 61.5935C319.956 69.9133 316.225 82.2588 316.225 98.6301V174.716C316.225 191.087 319.956 203.567 327.419 212.155C334.881 220.475 345.675 224.635 359.8 224.635Z" fill="#CFEBFF"/>
        <path d="M359.8 273.346C327.552 273.346 302.899 264.892 285.842 247.984C268.785 230.808 260.257 206.385 260.257 174.716V98.6301C260.257 66.9611 268.785 42.6726 285.842 25.7646C302.899 8.5882 327.552 0 359.8 0C392.315 0 417.101 8.5882 434.158 25.7646C451.215 42.6726 459.743 66.9611 459.743 98.6301V174.716C459.743 206.385 451.215 230.808 434.158 247.984C417.101 264.892 392.315 273.346 359.8 273.346ZM359.8 224.635C373.925 224.635 384.719 220.475 392.182 212.155C399.911 203.567 403.775 191.087 403.775 174.716V98.6301C403.775 82.2588 399.911 69.9133 392.182 61.5935C384.719 53.0053 373.925 48.7112 359.8 48.7112C345.675 48.7112 334.881 53.0053 327.419 61.5935C319.956 69.9133 316.225 82.2588 316.225 98.6301V174.716C316.225 191.087 319.956 203.567 327.419 212.155C334.881 220.475 345.675 224.635 359.8 224.635Z" fill="url(#paint2_linear_146_29851)" fill-opacity="0.5"/>
    </g>
    <defs>
        <linearGradient id="paint0_linear_146_29851" x1="360" y1="0" x2="360" y2="276" gradientUnits="userSpaceOnUse">
            <stop stop-color="white"/>
            <stop offset="1" stop-color="white" stop-opacity="0"/>
        </linearGradient>
        <linearGradient id="paint1_linear_146_29851" x1="360" y1="0" x2="360" y2="276" gradientUnits="userSpaceOnUse">
            <stop stop-color="white"/>
            <stop offset="1" stop-color="white" stop-opacity="0"/>
        </linearGradient>
        <linearGradient id="paint2_linear_146_29851" x1="360" y1="0" x2="360" y2="276" gradientUnits="userSpaceOnUse">
            <stop stop-color="white"/>
            <stop offset="1" stop-color="white" stop-opacity="0"/>
        </linearGradient>
    </defs>
</svg>