<svg width="140" height="140" viewBox="0 0 140 140" fill="none" xmlns="http://www.w3.org/2000/svg">
<path fill-rule="evenodd" clip-rule="evenodd" d="M70 140C108.66 140 140 108.66 140 70C140 31.3401 108.66 0 70 0C31.3401 0 0 31.3401 0 70C0 108.66 31.3401 140 70 140ZM70 95C83.8071 95 95 83.8071 95 70C95 56.1929 83.8071 45 70 45C56.1929 45 45 56.1929 45 70C45 83.8071 56.1929 95 70 95Z" fill="url(#paint0_linear_2940_32047)"/>
<path d="M69.5 45H70C83.8086 45 95 56.1934 95 70C95 83.8066 83.8086 95 70 95C69.832 94.9961 69.668 95 69.5 95C57.0742 95 47 105.073 47 117.5C47 129.927 57.0742 140 69.5 140C69.668 140 69.832 140.004 70 140C108.66 140 140 108.66 140 70C140 31.3398 108.66 0 70 0H69.5C57.0742 0 47 10.0732 47 22.5C47 34.9268 57.0742 45 69.5 45Z" fill="url(#paint1_linear_2940_32047)"/>
<defs>
<linearGradient id="paint0_linear_2940_32047" x1="18.5" y1="117.5" x2="75" y2="9.5" gradientUnits="userSpaceOnUse">
<stop stop-color="#A13BEB"/>
<stop offset="1" stop-color="#2099F8"/>
</linearGradient>
<linearGradient id="paint1_linear_2940_32047" x1="82.5" y1="2" x2="102" y2="132" gradientUnits="userSpaceOnUse">
<stop stop-color="#3BF09B"/>
<stop offset="1" stop-color="#009EFD"/>
</linearGradient>
</defs>
</svg>
